<svg xmlns="http://www.w3.org/2000/svg" width="12.115in" height="11.348in" viewBox="0 0 872.252 817.087"><title>sold-logo</title><path d="M58.812,296.517C93.059,127.765,249.28,0,436.739,0c185.975,0,340.815,129.755,376.7,296.517M58.812,672.809V817.087H813.44V672.809" fill="#e21f27"/><path d="M798.16,299.931h-9.65l-.3-1.4c-16.043-75.293-60.633-144.6-125.557-195.16-65-50.613-145.327-78.487-226.194-78.487a375.486,375.486,0,0,0-228.234,77.759C143.208,152.81,99.08,221.845,83.972,297.03l-.288,1.431-9.593-.069.423-2.1C106.673,136.257,262.276,15.576,436.46,15.576c82.87,0,165.326,28.818,232.18,81.144,66.729,52.229,112.565,123.638,129.065,201.073ZM271.593,229.4h2.555l6.059-4.76a44.666,44.666,0,0,0,18.593,4.3c19.766,0,27.207-13.6,27.207-26.159,0-14.762-11.51-18.95-22.321-22.551-13.024-4.188-19.885-7.441-19.885-16.4,0-8.717,6.4-13.715,14.063-13.715,9.074,0,16.054,7.211,21.4,20.346H322.4V146.053h-2.554l-3.832,4.069a41.629,41.629,0,0,0-16.395-3.371c-15.341,0-26.747,9.416-26.747,24.3,0,14.651,11.747,18.482,23.138,22.44,14.064,4.767,20.346,8.368,20.346,17.665,0,6.861-5.109,14.3-16.158,14.3s-19.068-9.066-25.573-23.367h-3.03Zm113.535-.23c21.044,0,38.36-16.507,38.36-41.62s-16.737-41.033-38.36-41.033c-21.044,0-38.36,16.507-38.36,41.5C346.768,213.246,363.505,229.174,385.128,229.174Zm.46-3.49c-13.945,0-23.241-10.225-23.241-37.892,0-27.556,8.242-37.788,22.321-37.788,14.063,0,23.36,10.232,23.36,37.788C408.028,215.459,399.652,225.684,385.588,225.684Zm55.394,1.514h65.106l.936-27.206-3.03-.112c-6.4,17.673-11.851,23.828-27.667,23.828h-9.534V157.563c0-4.3,1.737-5.933,11.747-6.282v-2.9H440.982v2.9c9.772.349,11.97,2.094,11.97,6.282v60.45c0,4.188-2.2,5.933-11.97,6.282Zm81.561,0h36.5c29.42,0,41.612-19.528,41.612-40.8,0-22.21-14.286-38.018-43.127-38.018H522.543v2.9c9.772.349,12.088,2.094,12.088,6.282v60.45c0,4.188-2.316,5.933-12.088,6.282Zm25.929-3.49V151.867h7.545c19.543,0,29.3,8.718,29.3,35.457,0,26.39-6.623,36.384-28.944,36.384Zm249.716,449.1-9.565-.012,0,119.4H83.7L83.7,672.807l-9.55-.015-.006,128.982H798.189Zm74.064-376.147H0V672.792H872.252Z" fill="#fff"/><path d="M15.191,311.678v346.1H857.06v-346.1Zm11.949,334.3V323.475H845.112V645.981ZM132.513,538.412H739.739v5.807H132.513ZM350.427,374.69h-14.92V350.877h14.348v3.36h-10.48v6.613h8.448v3.36h-8.448v7.121h11.052Zm23.829-6.777c0-2.11-.7-3.105-5.03-3.806-7.1-1.088-8.055-4.049-8.055-6.8,0-3.89,3.3-6.713,7.857-6.713,4.841,0,7.889,2.46,8.362,6.748l.067.613h-3.551l-.085-.45c-.481-2.545-1.87-3.584-4.793-3.584-2.617,0-4.18,1.171-4.18,3.132,0,1.722.336,2.818,4.993,3.519,4.915.774,8.187,2.285,8.187,7.153,0,4.135-3.61,7.253-8.4,7.253-6.941,0-8.845-4.189-9.219-7.7l-.065-.611h3.767l.062.481c.351,2.7,1.412,4.505,5.455,4.505C372.354,371.648,374.256,370.112,374.256,367.913Zm19.535-13.676h-6.607v-3.36h17.08v3.36h-6.606V374.69h-3.867Zm17.184,18.027a2.585,2.585,0,1,1,2.584,2.585A2.588,2.588,0,0,1,410.975,372.264Zm37.574-17.026-5.082,3.653v-3.932l5.646-4.082h3.3V374.69h-3.868ZM472.8,366.687a7.623,7.623,0,0,0,5.245-1.913c-.3,3.41-1.511,6.811-5.182,6.811-2.411,0-3.656-.945-4.162-3.16l-.1-.429H464.84l.106.642c.662,4.008,3.523,6.306,7.85,6.306,5.78,0,9.1-4.461,9.1-12.24v-1.429c0-6.91-3.1-10.715-8.714-10.715-5.023,0-8.4,3.272-8.4,8.143A7.738,7.738,0,0,0,472.8,366.687Zm.381-12.863c2.891,0,4.688,2,4.688,5.228,0,2.614-1.871,4.371-4.656,4.371s-4.5-1.858-4.5-4.847C468.711,355.689,470.464,353.824,473.177,353.824Zm29.939,20.866h3.8v-4.763h3.144v-3.36H506.92v-15.69h-4.547L491.746,368.33v1.6h11.37Zm-6.366-8.123,6.366-10.986v10.986Zm36.063,1.251c0-2.635-1.348-3.863-4.243-3.863H526.3v-3.422h2.14c2.526,0,3.7-1.056,3.7-3.323,0-2.04-1.337-3.259-3.576-3.259a4.15,4.15,0,0,0-4.469,3.8l-.055.492h-3.485l.025-.577c.182-4.1,3.539-7.07,7.984-7.07,4.845,0,7.381,3.3,7.381,6.554a5.459,5.459,0,0,1-2.743,4.862,5.937,5.937,0,0,1,3.537,5.81c0,4.281-3.464,7.158-8.62,7.158-4.9,0-8.312-3.021-8.491-7.517l-.023-.575h3.618l.047.5c.183,1.945,1.184,4.263,4.913,4.263C531.257,371.648,532.813,370.359,532.813,367.818ZM278.529,588.75v-.208c0-7.118-5.046-11.2-13.843-11.2H252.655v38.816h6.3v-16.1h4.322l10.759,15.7.267.4h7.211l-11.561-16.736C275.493,597.921,278.529,594.157,278.529,588.75Zm-6.3-.208v.208c0,3.993-2.365,5.935-7.23,5.935h-6.038V582.76H265C270.064,582.76,272.226,584.489,272.226,588.542Zm36.231,22.144h18.018v5.472h-24.32V577.342h23.388v5.472H308.457V593.6H322.23v5.477H308.457Zm57.375-33.344h-7.189L345.29,616.158h6.151l3.572-10.666H369l3.624,10.666h6.348l-12.932-38.205Zm1.366,22.782H356.859l5.17-15.345Zm39.433,10.562h16.931v5.472H400.329V577.342h6.3Zm31.082-33.344h27.841v5.472H454.785v33.344h-6.3V582.814H437.713Zm64.689-.468c-11.081,0-19.124,8.281-19.124,19.691v.415c0,11.2,8.266,19.646,19.228,19.646,10.931,0,18.865-8.3,18.865-19.745v-.415C521.371,585.114,513.393,576.874,502.4,576.874Zm.1,34.226c-7.4,0-12.77-5.959-12.77-14.17v-.414c0-8.638,4.972-14.22,12.666-14.22,7.483,0,12.511,5.673,12.511,14.116v.414C514.913,605.5,510.043,611.1,502.506,611.1Zm67.435-22.35v-.208c0-7.118-5.045-11.2-13.843-11.2H544.067v38.816h6.3v-16.1h4.323l10.758,15.7.268.4h7.21l-11.561-16.736C566.905,597.921,569.941,594.157,569.941,588.75Zm-6.3-.208v.208c0,3.993-2.365,5.935-7.23,5.935H550.37V582.76h6.039C561.477,582.76,563.639,584.489,563.639,588.542ZM619.6,604.8c0,6.742-5.884,11.826-13.687,11.826-11.314,0-14.417-6.83-15.029-12.56l-.105-.993h6.139l.1.784c.571,4.407,2.3,7.342,8.9,7.342,4.369,0,7.54-2.56,7.54-6.088,0-3.829-1.763-5.164-8.2-6.208-6.816-1.046-13.128-3.113-13.128-11.086,0-6.341,5.386-10.943,12.807-10.943,7.892,0,12.86,4.011,13.63,11l.106,1H612.88l-.139-.733c-.784-4.152-3.048-5.845-7.816-5.845-4.2,0-6.816,1.957-6.816,5.107,0,2.807.548,4.593,8.141,5.739,4.544.715,7.5,1.728,9.584,3.286C618.366,598.318,619.6,601.057,619.6,604.8Zm10.339-26.223v-.022c0-1.044-.765-1.53-1.948-1.53H626.2V582.1h1.113v-1.972h.533l1.229,1.972h1.159l-1.344-2.158A1.342,1.342,0,0,0,629.935,578.577Zm-1.09.047c0,.488-.3.742-.881.742h-.649v-1.484h.649c.557,0,.881.186.881.719Zm-.881-4.128a5.123,5.123,0,0,0-5.149,5.149,5.149,5.149,0,1,0,5.149-5.149Zm0,9.416a4.291,4.291,0,1,1,4.22-4.29A4.105,4.105,0,0,1,627.964,583.912ZM141.007,496.628a76.1,76.1,0,0,1-36.982,9.494c-14.2,0-26.356-4.507-35.165-13.033-9.172-8.878-14.02-21.569-14.02-36.7,0-14.37,5.212-27.3,14.677-36.395,9.224-8.869,22.017-13.754,36.023-13.754,11.618,0,19.724,2.988,23.864,5l5.022-5.551h5.428V439.9h-5.917l-.259-.6c-7.837-18.19-17.085-26.662-29.1-26.662-7.076,0-13.109,3.482-17.448,10.069-5.03,7.637-7.581,18.878-7.581,33.41,0,27.226,9.768,43.479,26.13,43.479,5.9,0,10.736-1.3,14.014-3.76V469.467c0-3.677-2.231-5.887-13.637-6.3l-.958-.035v-5.67h46.186v5.653l-.94.051c-6.846.373-8.836,1.228-8.836,6.167v27.012Zm52.82,1.585-.847-.126c-5.691-.851-8.63-2.08-9.825-4.112-1.359-2.309-.838-6.117,1.8-13.142l4.438-11.749h28.758l6.935,20.139c.984,2.679,1.077,4.4.3,5.577-1.241,1.884-4.969,2.894-12.088,3.277l-.941.051v5.653h50.73v-5.555l-.833-.137c-9.8-1.61-11.49-3.47-13.96-10.1l-29.565-81.34H205.232l-27.919,72.09c-5.187,13.178-8.858,17.341-17.074,19.364l-.757.186v5.49h34.345Zm-2.043-35.523,12.529-33.752,11.634,33.752Zm129.4,35.43-.949-.043c-9.965-.453-11.718-2.305-11.718-6.029V458.9h5.615c7.457,0,11.745,1.008,14.338,3.372,2.525,2.3,3.788,6.126,4.36,13.2l.964,11.287c1.008,12.247,4.651,17.711,23.571,17.711a109.569,109.569,0,0,0,12.925-.834l.874-.106v-5.553l-.955-.038c-10.094-.4-11.652-1.765-12.82-11.237l-1.239-10.744c-1.139-9.561-4.588-18.548-20.876-20.673,7.206-1.709,12.578-4.255,16.329-7.721,4.269-3.944,6.343-8.984,6.343-15.41,0-8.856-4.958-23.713-38.169-23.713H272.524v5.669l.956.036c11.565.434,12.4,2.567,12.4,6.029v71.873c0,3.782-1.223,5.609-12.4,6.028l-.957.036v5.669h48.664Zm-12.667-45.344v-37.94h6.028c7.512,0,12.678,1.561,15.791,4.774,2.827,2.918,4.143,7.3,4.143,13.783,0,13.4-2.7,19.383-18.695,19.383Zm157.613,35.985c7.5-8.576,11.467-20.485,11.467-34.44,0-13.717-4.471-25.157-12.93-33.082-9.065-8.492-22.189-12.8-39.009-12.8H380.746v5.669l.957.036c11.564.434,12.4,2.567,12.4,6.029v71.873c0,3.782-1.223,5.609-12.4,6.028l-.957.036v5.669h46.982C444.493,503.781,457.415,498.728,466.134,488.761Zm-42.675-73.925c10.587,0,17.669,2.681,22.288,8.439,5.087,6.343,7.56,16.993,7.56,32.561,0,16.43-2,26.56-6.476,32.847-4.357,6.115-11.352,8.842-22.683,8.842h-7.405V414.836Zm137.714-.695-.884-.1v-5.6h39.577v5.574l-.853.122c-11.783,1.683-13.879,6.617-13.879,19.669v71.352H574.7l-56.76-73.247v46.506c0,15.326,4.867,18.453,15.776,19.665l.884.1v5.6H495.163V498.2l.866-.113c11.426-1.49,14.555-5.718,14.555-19.667V427.2c0-8.318-4.735-12.587-14.474-13.051l-.947-.045v-5.66h33.014L577.776,473V433.806C577.776,420.5,573.586,415.534,561.173,414.141Zm137.662,89.64H613.16v-5.669l.957-.036c11.176-.419,12.4-2.246,12.4-6.028V420.175c0-3.462-.834-5.6-12.4-6.029l-.957-.036v-5.669H695.4l.731,33.624-5.946.192-.26-.644c-7.667-19.028-12.346-26.777-27.992-26.777H649.158v36.839h3.825c11.526,0,14.8-4.623,18.188-15.682l.215-.7H676.7v39.3h-5.309l-.215-.7c-4.144-13.536-8.96-15.82-18.188-15.82h-3.825v39.318h11.948c19.175,0,24.638-8.828,32.532-28.971l.265-.676,5.95.384Zm104.8-17.079-1.24-10.744c-1.138-9.561-4.588-18.548-20.875-20.673,7.205-1.709,12.578-4.255,16.329-7.721,4.268-3.944,6.343-8.984,6.343-15.41,0-8.856-4.959-23.713-38.169-23.713H718.766v5.669l.957.036c11.565.434,12.4,2.567,12.4,6.029v71.873c0,3.782-1.223,5.609-12.4,6.028l-.957.036v5.669h48.665V498.12l-.949-.043c-9.965-.453-11.718-2.305-11.718-6.029V458.9h5.614c7.458,0,11.746,1.008,14.339,3.372,2.525,2.3,3.788,6.126,4.36,13.2l.964,11.287c1.008,12.247,4.651,17.711,23.571,17.711a109.582,109.582,0,0,0,12.925-.834l.874-.106v-5.553l-.955-.038C806.362,497.54,804.8,496.174,803.636,486.7Zm-48.872-71.866h6.027c7.513,0,12.679,1.561,15.792,4.774,2.826,2.918,4.143,7.3,4.143,13.783,0,13.4-2.7,19.383-18.7,19.383h-7.267Z" fill="#ca9236"/></svg>