<?xml version="1.0" encoding="utf-8"?>
<!-- Generator: Adobe Illustrator 24.1.2, SVG Export Plug-In . SVG Version: 6.00 Build 0)  -->
<svg version="1.1" id="Layer_1" xmlns="http://www.w3.org/2000/svg" xmlns:xlink="http://www.w3.org/1999/xlink" x="0px" y="0px"
	 viewBox="0 0 500 165.5" style="enable-background:new 0 0 500 165.5;" xml:space="preserve">
<style type="text/css">
	.st0{fill:#186846;}
</style>
<g>
	<rect y="8.5" class="st0" width="12.7" height="77.4"/>
	<polygon class="st0" points="58.3,8.5 43.8,8.5 18,47.1 43.9,85.8 58.4,85.8 32.6,47.1 	"/>
	<path class="st0" d="M173.8,45.4v40.4h-11.9V46.6c0-8.3-4.8-12.8-12.4-12.8c-8.4,0-14,5.2-14,15.9v36.1h-11.9V24h11.9v7.1
		c3.6-5.6,9.3-8.5,17.1-8.5C165.3,22.6,173.8,31.2,173.8,45.4z"/>
	<path class="st0" d="M206.7,35.5H193v33c0,7.1,4.6,7,13.7,6.5v10.7c-18.2,2.2-25.6-2.8-25.6-17.2V8.5H193V24h13.7V35.5z"/>
	<path class="st0" d="M351.8,31.9c-6.3-6.3-13.9-9.3-23-9.3c-9,0-16.7,3.1-23,9.3c-6.3,6.3-9.5,13.9-9.5,23c0,9.1,3.2,16.7,9.5,23
		c6.3,6.3,14,9.3,23,9.3c9.1,0,16.7-3.1,23-9.3c6.3-6.3,9.5-13.9,9.5-23C361.3,45.8,358.1,38.2,351.8,31.9z M343.5,69.9
		c-4,4-8.9,6-14.7,6s-10.7-2-14.7-6c-4-4-6-9-6-15c0-6,2-11,6-15c4-4,8.9-6,14.7-6s10.7,2,14.7,6c4,4,6,9,6,15
		C349.5,60.9,347.5,65.9,343.5,69.9z"/>
	<path class="st0" d="M421.4,31.9c-6.3-6.3-13.9-9.3-23-9.3c-9,0-16.7,3.1-23,9.3c-6.3,6.3-9.5,13.9-9.5,23c0,9.1,3.2,16.7,9.5,23
		c6.3,6.3,14,9.3,23,9.3c9.1,0,16.7-3.1,23-9.3c6.3-6.3,9.5-13.9,9.5-23C430.9,45.8,427.7,38.2,421.4,31.9z M413.1,69.9
		c-4,4-8.9,6-14.7,6s-10.7-2-14.7-6c-4-4-6-9-6-15c0-6,2-11,6-15c4-4,8.9-6,14.7-6s10.7,2,14.7,6c4,4,6,9,6,15
		C419.1,60.9,417.1,65.9,413.1,69.9z"/>
	<path class="st0" d="M488.1,0v32.4c-3.6-5.2-11.7-9.8-20.7-9.8c-9,0-16.7,3.1-23,9.3c-6.3,6.3-9.5,13.9-9.5,23
		c0,9.1,3.2,16.7,9.5,23c6.3,6.3,14,9.3,23,9.3c8.7,0,17.1-3.8,20.7-9.5v7.9H500V0H488.1z M482.1,69.9c-4,4-8.9,6-14.7,6
		c-5.8,0-10.7-2-14.7-6c-4-4-6-9-6-15c0-6,2-11,6-15c4-4,8.9-6,14.7-6c5.8,0,10.7,2,14.7,6c4,4,6,9,6,15
		C488.1,60.9,486.1,65.9,482.1,69.9z"/>
	<path class="st0" d="M117.3,54.9c0-9.1-2.4-16.7-8.7-23c-6.3-6.3-13.9-9.3-23-9.3c-9,0-16.7,3.1-23,9.3c-6.3,6.3-9.5,13.9-9.5,23
		c0,9.1,2.9,16.7,9.2,23c6.3,6.3,14,9.3,23,9.3c9.1,0,16.1-3.1,22.4-9.3c3.3-3.3,5.7-7,7.3-11h-13.2c-0.7,1-1.5,2.1-2.3,3
		c0,0-4.8,6-14.1,6c-5.8,0-10.7-2-14.7-6c-2.7-2.7-4.1-5.8-5-9.4l51.3,0C117.2,58.8,117.3,56.2,117.3,54.9z M65.7,49.1
		c0.9-3.5,2.6-6.5,5.2-9.1c4-4,8.9-6,14.7-6c5.8,0,10.7,2,14.7,6c2.6,2.6,4,5.7,4.7,9.1H65.7z"/>
	<polygon class="st0" points="285.4,23.3 297.9,23.3 281.8,85.1 266.3,85.1 254.6,40.6 243.2,85.1 227.7,85.1 211.6,23.3 
		224.1,23.3 235.4,68 246.9,23.3 262.7,23.3 274.1,68 	"/>
</g>
<g>
	<path class="st0" d="M120.1,164.7l-12.6-14.1h-5.1v14.1h-5.6v-35.3h16.6c3.6,0,6.5,1,8.8,2.9c2.2,1.9,3.3,4.5,3.3,7.7
		c0,3-1,5.5-3,7.4c-2,1.9-4.7,3-8.1,3.1l12.7,14.1H120.1z M113.4,145.5c1.9,0,3.5-0.5,4.7-1.5c1.2-1,1.8-2.3,1.8-4
		c0-1.6-0.6-3-1.8-4c-1.2-1-2.8-1.5-4.7-1.5h-11v11H113.4z"/>
	<path class="st0" d="M157.8,153h-21.2c0.2,2.4,1.1,4.2,2.6,5.6c1.5,1.4,3.3,2.1,5.3,2.1c3.6,0,6.2-1.5,7.7-4.5l4.9,1.1
		c-1.1,2.7-2.7,4.7-4.9,6.1c-2.2,1.4-4.8,2.1-7.7,2.1c-3.7,0-6.8-1.3-9.4-3.8c-2.6-2.6-3.9-5.9-3.9-9.9c0-4.1,1.3-7.4,3.9-10
		c2.6-2.6,5.8-3.9,9.6-3.9c3.5,0,6.6,1.2,9.1,3.7c2.5,2.5,3.8,5.6,4,9.5V153z M139.7,144.4c-1.5,1.1-2.5,2.7-2.9,4.7h15.4
		c-0.4-2.1-1.3-3.7-2.6-4.7c-1.3-1.1-2.9-1.6-4.8-1.6C142.9,142.7,141.2,143.3,139.7,144.4z"/>
	<path class="st0" d="M191.2,164.7h-5.5v-3c-2.4,2.5-5.5,3.7-9.5,3.7c-3.5,0-6.6-1.3-9.1-3.9c-2.5-2.6-3.8-5.9-3.8-9.9
		c0-4,1.3-7.3,3.8-9.9c2.6-2.6,5.6-3.9,9.1-3.9c3.9,0,7.1,1.2,9.5,3.7v-3h5.5V164.7z M183.1,158.1c1.7-1.7,2.6-3.8,2.6-6.5
		s-0.9-4.8-2.6-6.5c-1.7-1.7-3.7-2.5-6-2.5c-2.5,0-4.5,0.8-6.1,2.4c-1.6,1.6-2.4,3.8-2.4,6.5c0,2.7,0.8,4.9,2.4,6.5
		c1.6,1.6,3.7,2.4,6.1,2.4C179.4,160.6,181.4,159.8,183.1,158.1z"/>
	<path class="st0" d="M200.5,164.7v-37.9h5.5v37.9H200.5z"/>
	<path class="st0" d="M260.9,164.7h-26.3v-35.3h26.2v5.1h-20.6v10h19v5.1h-19v10.1h20.6V164.7z"/>
	<path class="st0" d="M272.7,156.6c0.2,1.5,0.9,2.6,2,3.3c1.2,0.7,2.7,1.1,4.5,1.1c1.6,0,2.8-0.3,3.8-0.9c0.9-0.6,1.4-1.5,1.4-2.5
		c0-1.5-1.2-2.6-3.5-3.1l-5.7-1.2c-4.7-1.1-7.1-3.4-7.1-7.1c0-2.5,0.9-4.5,2.8-6c1.9-1.5,4.4-2.3,7.5-2.3c2.9,0,5.4,0.7,7.3,2.1
		c1.9,1.4,3.2,3.2,3.7,5.5l-5.2,1.1c-0.2-1.3-0.8-2.3-1.9-3.1c-1.1-0.8-2.4-1.2-4.1-1.2c-1.5,0-2.7,0.3-3.4,1
		c-0.8,0.6-1.2,1.5-1.2,2.4c0,1.5,1.1,2.5,3.2,2.9l6.2,1.4c2.1,0.5,3.8,1.3,5,2.5c1.2,1.2,1.8,2.7,1.8,4.6c0,2.7-1,4.7-3,6.2
		c-2,1.5-4.7,2.2-8,2.2c-3.1,0-5.7-0.7-7.8-2c-2.1-1.3-3.4-3.2-3.7-5.8L272.7,156.6z"/>
	<path class="st0" d="M315.6,163.5c-2.2,1.3-4.4,2-6.5,2c-2.9,0-5.2-0.8-6.9-2.4c-1.7-1.6-2.5-4-2.5-7.2v-12.7H294v-4.5h5.6v-8.1
		h5.5v8.1h9v4.5h-9v12.3c0,1.6,0.4,2.8,1.2,3.6c0.8,0.8,1.8,1.2,3.2,1.2c1.5,0,3-0.5,4.4-1.4L315.6,163.5z"/>
	<path class="st0" d="M346.7,164.7h-5.5v-3c-2.4,2.5-5.5,3.7-9.5,3.7c-3.5,0-6.6-1.3-9.1-3.9c-2.5-2.6-3.8-5.9-3.8-9.9
		c0-4,1.3-7.3,3.8-9.9c2.6-2.6,5.6-3.9,9.1-3.9c3.9,0,7.1,1.2,9.5,3.7v-3h5.5V164.7z M338.6,158.1c1.7-1.7,2.6-3.8,2.6-6.5
		s-0.9-4.8-2.6-6.5c-1.7-1.7-3.7-2.5-6-2.5c-2.5,0-4.5,0.8-6.1,2.4c-1.6,1.6-2.4,3.8-2.4,6.5c0,2.7,0.8,4.9,2.4,6.5
		c1.6,1.6,3.7,2.4,6.1,2.4C334.9,160.6,336.9,159.8,338.6,158.1z"/>
	<path class="st0" d="M374,163.5c-2.2,1.3-4.4,2-6.5,2c-2.9,0-5.2-0.8-6.9-2.4c-1.7-1.6-2.5-4-2.5-7.2v-12.7h-5.6v-4.5h5.6v-8.1h5.5
		v8.1h9v4.5h-9v12.3c0,1.6,0.4,2.8,1.2,3.6c0.8,0.8,1.8,1.2,3.2,1.2c1.5,0,3-0.5,4.4-1.4L374,163.5z"/>
	<path class="st0" d="M403.8,153h-21.2c0.2,2.4,1.1,4.2,2.6,5.6c1.5,1.4,3.3,2.1,5.3,2.1c3.6,0,6.2-1.5,7.7-4.5l4.9,1.1
		c-1.1,2.7-2.7,4.7-4.9,6.1c-2.2,1.4-4.8,2.1-7.7,2.1c-3.7,0-6.8-1.3-9.4-3.8c-2.6-2.6-3.9-5.9-3.9-9.9c0-4.1,1.3-7.4,3.9-10
		c2.6-2.6,5.8-3.9,9.6-3.9c3.5,0,6.6,1.2,9.1,3.7c2.5,2.5,3.8,5.6,4,9.5V153z M385.7,144.4c-1.5,1.1-2.5,2.7-2.9,4.7h15.4
		c-0.4-2.1-1.3-3.7-2.6-4.7c-1.3-1.1-2.9-1.6-4.8-1.6C388.9,142.7,387.2,143.3,385.7,144.4z"/>
</g>
</svg>
