<svg xmlns="http://www.w3.org/2000/svg" width="165" height="54" viewBox="0 0 165 54">
  <g fill="none" fill-rule="evenodd">
    <path fill="#2E2E2E" d="M160.641981,45.7715192 L161.700058,44.9499808 C161.300712,44.5302115 160.849673,44.2358654 160.343019,44.0669423 C159.837635,43.8981346 159.278135,43.8135577 158.665327,43.8135577 C158.185327,43.8135577 157.725058,43.8730962 157.286596,43.9915962 C156.846865,44.1103269 156.453404,44.2859423 156.106096,44.5187885 C155.758904,44.7514038 155.483019,45.0413654 155.278904,45.3880962 C155.074673,45.7351731 154.971865,46.1410962 154.971865,46.6065577 C154.971865,47.0084423 155.041096,47.3528654 155.179558,47.6402885 C155.316981,47.9278269 155.506096,48.1742885 155.746096,48.3796731 C155.986096,48.5850577 156.269942,48.7585962 156.596481,48.8999423 C156.923135,49.0416346 157.280712,49.1669423 157.669558,49.2765577 C158.149558,49.4226346 158.568404,49.55025 158.926212,49.65975 C159.283788,49.7693654 159.579173,49.8925962 159.814673,50.0294423 C160.049942,50.1664038 160.223019,50.3285192 160.336212,50.5155577 C160.448019,50.7027115 160.504673,50.9468654 160.504673,51.2480192 C160.504673,51.5218269 160.433019,51.7639038 160.289942,51.9736731 C160.146865,52.1837885 159.96225,52.3594038 159.738519,52.50075 C159.513519,52.6424423 159.260712,52.7496346 158.979288,52.8225577 C158.698788,52.8957115 158.419558,52.9321731 158.143904,52.9321731 C157.674173,52.9321731 157.230058,52.8410192 156.811212,52.65825 C156.392365,52.4758269 156.065827,52.2065192 155.830442,51.8505577 L154.72725,52.65825 C154.910827,52.9047115 155.129942,53.1124038 155.386096,53.2813269 C155.641096,53.45025 155.914558,53.5870962 156.205442,53.6919808 C156.497365,53.79675 156.800712,53.8745192 157.118019,53.9247115 C157.434173,53.9747885 157.750327,53.9999423 158.067635,53.9999423 C158.558019,53.9999423 159.033519,53.9428269 159.492635,53.8288269 C159.953019,53.7148269 160.359288,53.5414038 160.711212,53.3085577 C161.063019,53.0758269 161.346865,52.7814808 161.561596,52.4254038 C161.776212,52.0695577 161.883519,51.6497885 161.883519,51.1659808 C161.883519,50.6914038 161.793404,50.2965577 161.615712,49.9815577 C161.436981,49.6666731 161.196981,49.4044038 160.894558,49.1942885 C160.593519,48.9845192 160.246096,48.8109808 159.852635,48.6740192 C159.459288,48.5371731 159.053019,48.4094423 158.634288,48.2907115 C158.206212,48.1722115 157.842635,48.0533654 157.547365,47.93475 C157.250712,47.81625 157.015327,47.6881731 156.84225,47.5513269 C156.668135,47.4143654 156.543404,47.2617115 156.466212,47.0926731 C156.389942,46.9238654 156.351865,46.7299038 156.351865,46.5107885 C156.351865,46.2279808 156.41775,45.9815192 156.550327,45.7715192 C156.683019,45.5616346 156.859673,45.3928269 157.078788,45.2648654 C157.299173,45.1371346 157.547365,45.0413654 157.823019,44.9773269 C158.098788,44.9135192 158.379288,44.8815577 158.665327,44.8815577 C159.053019,44.8815577 159.426981,44.9522885 159.784558,45.0938654 C160.141096,45.2354423 160.427365,45.4613654 160.641981,45.7715192 L160.641981,45.7715192 Z M135.158135,48.3316731 L136.307365,48.3316731 C136.664942,48.3316731 137.035327,48.3227885 137.418404,48.3043269 C137.801596,48.2862115 138.153519,48.2269038 138.475442,48.1264038 C138.797365,48.0260192 139.062635,47.8686346 139.27275,47.6540192 C139.481481,47.4396346 139.586596,47.1315577 139.586596,46.7299038 C139.586596,46.3830577 139.510327,46.1048654 139.356865,45.8946346 C139.203404,45.6848654 139.001481,45.5229808 138.751096,45.4086346 C138.500712,45.2946346 138.220442,45.2192885 137.908788,45.1827115 C137.596212,45.1463654 137.282365,45.1280192 136.966212,45.1280192 L135.158135,45.1280192 L135.158135,48.3316731 Z M133.870327,44.0600192 L136.644288,44.0600192 C137.165712,44.0600192 137.683788,44.0873654 138.199673,44.1421731 C138.715442,44.1969808 139.178019,44.3157115 139.586596,44.4981346 C139.995058,44.6809038 140.32725,44.9477885 140.58225,45.2991346 C140.83725,45.6505962 140.965442,46.1274808 140.965442,46.7299038 C140.965442,47.4418269 140.725442,48.0169038 140.245327,48.4550192 C139.765327,48.8931346 139.100827,49.1716731 138.253904,49.2901731 L141.333404,53.7535962 L139.754942,53.7535962 L136.812635,49.3996731 L135.158135,49.3996731 L135.158135,53.7535962 L133.870327,53.7535962 L133.870327,44.0600192 L133.870327,44.0600192 Z M113.872096,52.9321731 C114.505442,52.9321731 115.08525,52.8271731 115.611865,52.6171731 C116.138135,52.4074038 116.589288,52.1198654 116.967635,51.7546731 C117.345058,51.3895962 117.639288,50.9629038 117.849288,50.4744808 C118.058019,49.9862885 118.163135,49.4635962 118.163135,48.9068654 C118.163135,48.3501346 118.058019,47.8274423 117.849288,47.3391346 C117.639288,46.8509423 117.345058,46.4241346 116.967635,46.0589423 C116.589288,45.6939808 116.138135,45.4065577 115.611865,45.1964423 C115.08525,44.9865577 114.505442,44.8815577 113.872096,44.8815577 C113.238635,44.8815577 112.658827,44.9865577 112.132788,45.1964423 C111.606519,45.4065577 111.154442,45.6939808 110.776673,46.0589423 C110.398558,46.4241346 110.104788,46.8509423 109.895365,47.3391346 C109.685942,47.8274423 109.581288,48.3501346 109.581288,48.9068654 C109.581288,49.4635962 109.685942,49.9862885 109.895365,50.4744808 C110.104788,50.9629038 110.398558,51.3895962 110.776673,51.7546731 C111.154442,52.1198654 111.606519,52.4074038 112.132788,52.6171731 C112.658827,52.8271731 113.238635,52.9321731 113.872096,52.9321731 L113.872096,52.9321731 Z M113.872096,53.9999423 C113.044558,53.9999423 112.285904,53.8720962 111.596365,53.6166346 C110.906827,53.3611731 110.309135,53.0074038 109.803404,52.5555577 C109.297904,52.1037115 108.904327,51.5653269 108.623481,50.9398269 C108.342404,50.3150192 108.202096,49.6371346 108.202096,48.9068654 C108.202096,48.1767115 108.342404,47.4989423 108.623481,46.8736731 C108.904327,46.2485192 109.297904,45.7099038 109.803404,45.2580577 C110.309135,44.8062115 110.906827,44.4525577 111.596365,44.1969808 C112.285904,43.9415192 113.044558,43.8135577 113.872096,43.8135577 C114.699519,43.8135577 115.458404,43.9415192 116.147365,44.1969808 C116.83725,44.4525577 117.434942,44.8062115 117.940442,45.2580577 C118.446981,45.7099038 118.839173,46.2485192 119.120712,46.8736731 C119.401212,47.4989423 119.541981,48.1767115 119.541981,48.9068654 C119.541981,49.6371346 119.401212,50.3150192 119.120712,50.9398269 C118.839173,51.5653269 118.446981,52.1037115 117.940442,52.5555577 C117.434942,53.0074038 116.83725,53.3611731 116.147365,53.6166346 C115.458404,53.8720962 114.699519,53.9999423 113.872096,53.9999423 L113.872096,53.9999423 Z M95.0537885,45.1280192 L95.0537885,44.0600192 L86.5948269,44.0600192 L86.5948269,45.1280192 L90.18075,45.1280192 L90.18075,53.7535962 L91.4678654,53.7535962 L91.4678654,45.1280192 L95.0537885,45.1280192 L95.0537885,45.1280192 Z M69.2626731,44.0600192 L69.2626731,53.7535962 L75.5150192,53.7535962 L75.5150192,52.6855962 L70.5501346,52.6855962 L70.5501346,44.0600192 L69.2626731,44.0600192 L69.2626731,44.0600192 Z M50.3218269,45.5386731 L50.2910192,45.5386731 L48.0384808,50.30325 L52.4671731,50.30325 L50.3218269,45.5386731 Z M49.7394808,44.0600192 L50.9499808,44.0600192 L55.5627115,53.7535962 L54.0608654,53.7535962 L52.9575577,51.37125 L47.5328654,51.37125 L46.4139808,53.7535962 L44.9582885,53.7535962 L49.7394808,44.0600192 L49.7394808,44.0600192 Z M24.8679808,44.0600192 L24.8679808,53.7535962 L31.9633269,53.7535962 L31.9633269,52.6855962 L26.1554423,52.6855962 L26.1554423,49.2354808 L31.3197115,49.2354808 L31.3197115,48.1674808 L26.1554423,48.1674808 L26.1554423,45.1280192 L31.6874423,45.1280192 L31.6874423,44.0600192 L24.8679808,44.0600192 L24.8679808,44.0600192 Z M4.53271154,48.3316731 L5.68205769,48.3316731 C6.03940385,48.3316731 6.40978846,48.3227885 6.79298077,48.3043269 C7.17605769,48.2862115 7.52855769,48.2269038 7.85048077,48.1264038 C8.17228846,48.0260192 8.43767308,47.8686346 8.64721154,47.6540192 C8.85651923,47.4396346 8.96140385,47.1315577 8.96140385,46.7299038 C8.96140385,46.3830577 8.88478846,46.1048654 8.73144231,45.8946346 C8.57832692,45.6848654 8.37651923,45.5229808 8.12613462,45.4086346 C7.87575,45.2946346 7.59501923,45.2192885 7.28336538,45.1827115 C6.97159615,45.1463654 6.65751923,45.1280192 6.34090385,45.1280192 L4.53271154,45.1280192 L4.53271154,48.3316731 Z M3.24536538,44.0600192 L6.01909615,44.0600192 C6.54017308,44.0600192 7.05848077,44.0873654 7.57459615,44.1421731 C8.09036538,44.1969808 8.55271154,44.3157115 8.96140385,44.4981346 C9.36998077,44.6809038 9.70205769,44.9477885 9.95740385,45.2991346 C10.2128654,45.6505962 10.3407115,46.1274808 10.3407115,46.7299038 C10.3407115,47.4418269 10.1004808,48.0169038 9.62036538,48.4550192 C9.14001923,48.8931346 8.47609615,49.1716731 7.62813462,49.2901731 L10.7084423,53.7535962 L9.12998077,53.7535962 L6.18767308,49.3996731 L4.53271154,49.3996731 L4.53271154,53.7535962 L3.24536538,53.7535962 L3.24536538,44.0600192 L3.24536538,44.0600192 Z M157.950058,38.7447115 C163.165327,38.7447115 164.076981,34.5820962 164.076981,32.6224038 L164.076981,27.3121731 L162.926596,27.3121731 L162.926596,31.71375 C162.926596,34.8706731 161.683788,37.0715192 159.194942,37.0715192 C156.180058,37.1655577 156.036981,32.7679038 156.036981,31.4282885 L156.036981,11.1478269 L162.401596,11.1478269 L162.401596,9.99975 L155.988519,9.99975 L155.988519,4.06678846 L151.346481,4.06678846 L151.346481,9.99975 L147.998135,9.99975 L147.998135,11.1478269 L151.346481,11.1478269 L151.346481,27.2176731 C151.346481,32.3344038 150.438404,38.7447115 157.950058,38.7447115 L157.950058,38.7447115 Z M147.124673,20.9015192 L148.368519,20.9015192 L148.368519,10.7627885 C147.124673,10.0925192 146.02275,9.75998077 144.826212,9.75998077 C140.568404,9.75998077 137.840827,13.7299038 137.553404,15.8338269 L137.553404,9.99975 L129.993519,9.99975 L129.993519,11.1478269 L133.054558,11.1478269 L133.054558,36.8775577 L130.138904,36.8775577 L130.138904,37.9789038 L141.813404,37.9789038 L141.813404,36.8775577 L137.982635,36.8775577 L137.982635,26.0239038 C137.982635,20.3310577 137.601865,14.3029038 142.004942,11.7685962 C143.680442,10.8113654 144.491481,12.9181731 145.593519,16.2159808 L147.124673,20.9015192 L147.124673,20.9015192 Z M123.703788,22.0018269 L121.120327,22.95975 C114.565558,25.4464038 112.459212,24.5862115 111.884019,31.2358269 C111.598788,34.2002885 113.225481,37.4039423 116.625058,37.1655577 C120.690058,36.8775577 123.130327,32.7679038 123.608019,29.0349808 C123.800712,27.3619038 123.703788,26.3093654 123.703788,24.6345577 L123.703788,22.0018269 Z M123.415327,37.9789038 L123.415327,33.0047885 C122.127635,36.92625 118.204558,39.0313269 114.23025,38.7447115 C110.259865,38.5050577 106.718365,35.3969423 106.860865,31.3300962 C107.100981,24.9200192 111.933981,24.2040577 116.625058,22.95975 C120.641596,21.9572885 120.546981,22.0986346 122.747365,21.0485192 L123.703788,20.6165192 L123.703788,16.4541346 C123.703788,13.5383654 122.989673,10.7627885 118.825442,10.2863654 C114.660981,9.85436538 113.562288,13.2035192 112.319365,16.2643269 L110.882135,19.8990577 L109.732442,19.8990577 L109.732442,11.2422115 C111.022096,10.6686346 112.844827,9.99975 114.75675,9.66282692 C116.432365,9.37759615 117.005712,9.13805769 119.351481,9.28332692 C127.820827,9.71290385 128.538519,14.1578654 128.538519,18.9418269 L128.538519,36.8775577 L131.264942,36.8775577 L131.264942,37.9789038 L123.415327,37.9789038 L123.415327,37.9789038 Z M96.61425,37.9789038 L107.617212,37.9789038 L107.617212,36.8775577 L104.796519,36.8775577 L104.796519,18.0831346 C104.796519,12.1494808 102.977019,9.99975 97.7641731,9.51905769 C94.3183269,9.18675 91.01475,12.1494808 90.2510192,14.5902115 L90.2510192,-5.76923077e-05 L82.4504423,-5.76923077e-05 L82.4504423,1.14940385 L85.3684038,1.14940385 L85.3684038,36.8775577 L82.6426731,36.8775577 L82.6426731,37.9789038 L93.9347885,37.9789038 L93.9347885,36.8775577 L90.2510192,36.8775577 L90.2510192,24.6345577 C90.2510192,18.9917885 90.9665192,11.3864423 96.3758654,11.1949038 C100.107865,11.0507885 100.011865,14.7327115 100.011865,18.4157885 L100.011865,36.8775577 L96.61425,36.8775577 L96.61425,37.9789038 L96.61425,37.9789038 Z M72.9524423,37.9789038 L83.7190962,37.9789038 L83.7190962,36.8775577 L81.0891346,36.8775577 L81.0891346,17.2715192 C81.0891346,11.1949038 77.7855577,9.51905769 73.5760962,9.47336538 C70.8492115,9.37759615 67.1645192,11.3864423 66.2076346,14.8780962 L66.2076346,9.99975 L58.6955192,9.99975 L58.6955192,11.1478269 L61.7094808,11.1478269 L61.7094808,36.8775577 L58.6955192,36.8775577 L58.6955192,37.9789038 L69.9400962,37.9789038 L69.9400962,36.8775577 L66.4928654,36.8775577 L66.4928654,21.7648269 C66.4928654,16.4541346 68.0739808,11.2422115 72.5233269,11.0040577 C74.6295577,10.9555962 76.2529038,13.0595192 76.2529038,15.3087115 L76.2529038,36.8775577 L72.9524423,36.8775577 L72.9524423,37.9789038 L72.9524423,37.9789038 Z M49.0002115,37.9789038 L59.6240192,37.9789038 L59.6240192,36.8775577 L56.9920962,36.8775577 L56.9920962,9.99975 L49.1939423,9.99975 L49.1939423,11.1478269 L51.9683654,11.1478269 L51.9683654,36.8775577 L49.0002115,36.8775577 L49.0002115,37.9789038 L49.0002115,37.9789038 Z M43.5019038,16.9321731 C43.4530962,13.7299038 42.16275,10.0925192 38.7655962,10.2863654 C35.89275,10.4277115 33.8353269,13.3943654 33.4056346,16.4541346 L32.8794808,19.9475192 L43.5970962,19.9475192 L43.5019038,16.9321731 Z M49.0041346,28.4603654 C48.5731731,33.8192885 44.84175,38.6007115 39.3876346,38.7447115 C32.4479423,38.8888269 27.0898269,32.24025 27.4725577,23.6777885 C27.8545962,15.8338269 32.35275,9.18675 39.0042115,9.08959615 C45.4639038,8.99267308 49.5794423,15.25725 49.0041346,21.1926346 L32.8794808,21.1926346 L32.8794808,24.4423269 C32.8794808,31.1376346 34.1234423,37.0715192 39.7689808,37.4039423 C44.7931731,37.73925 47.4259038,32.1919038 47.7614423,28.31775 L47.8079423,27.5502115 L49.0528269,27.5502115 L49.0041346,28.4603654 L49.0041346,28.4603654 Z M13.5410192,1.14940385 L9.37817308,1.14940385 L9.37817308,17.5551346 L11.8640192,17.5551346 C18.1827115,17.5551346 22.1044038,15.4500577 22.0099038,8.80148077 C21.9604038,3.34840385 19.2331731,1.14940385 13.5410192,1.14940385 L13.5410192,1.14940385 Z M22.8721731,37.9789038 L9.28136538,17.9391346 L9.28136538,36.8775577 L13.1569038,36.8775577 L13.1569038,37.9789038 L5.76923077e-05,37.9789038 L5.76923077e-05,36.8775577 L3.58725,36.8775577 L3.58725,1.14940385 L0.191365385,1.14940385 L0.191365385,-5.76923077e-05 L16.1708654,-5.76923077e-05 C23.4425192,-5.76923077e-05 27.7513269,3.54051923 27.7995577,8.99267308 C27.8934808,14.5414038 22.8721731,17.8894038 17.8936731,18.2229808 L15.9796731,18.3699808 L28.6112885,36.8775577 L31.4354423,36.8775577 L31.4354423,37.9789038 L22.8721731,37.9789038 L22.8721731,37.9789038 Z"/>
    <path fill="#C4122F" d="M53.9771308,6.55489615 C52.3509,6.55489615 50.8677462,5.16889615 50.8677462,3.54047308 C50.8677462,1.91481923 52.3037077,0.386665385 53.9304,0.386665385 C55.6525154,0.386665385 57.1367077,1.81951154 57.1367077,3.49443462 C57.1367077,5.26258846 55.6525154,6.55489615 53.9771308,6.55489615"/>
  </g>
</svg>
