<?xml version="1.0" encoding="UTF-8"?>
<svg width="98px" height="92px" viewBox="0 0 98 92" version="1.1" xmlns="http://www.w3.org/2000/svg" xmlns:xlink="http://www.w3.org/1999/xlink">
    <!-- Generator: Sketch 50.2 (55047) - http://www.bohemiancoding.com/sketch -->
    <title>img-logo-slifer company-98x92</title>
    <desc>Created with Sketch.</desc>
    <defs>
        <linearGradient x1="3.93320177%" y1="-216.20636%" x2="68.9673119%" y2="159.696271%" id="linearGradient-1">
            <stop stop-color="#FFDF72" offset="0%"></stop>
            <stop stop-color="#FFD646" offset="29.59%"></stop>
            <stop stop-color="#DFAE3D" offset="62.24%"></stop>
            <stop stop-color="#C89525" offset="100%"></stop>
        </linearGradient>
        <linearGradient x1="17.3616815%" y1="-141.37607%" x2="82.4525999%" y2="240.451743%" id="linearGradient-2">
            <stop stop-color="#FFDF72" offset="0%"></stop>
            <stop stop-color="#FFD646" offset="29.59%"></stop>
            <stop stop-color="#DFAE3D" offset="62.24%"></stop>
            <stop stop-color="#C89525" offset="100%"></stop>
        </linearGradient>
        <linearGradient x1="30.927443%" y1="-58.8755086%" x2="95.9804893%" y2="312.898113%" id="linearGradient-3">
            <stop stop-color="#FFDF72" offset="0%"></stop>
            <stop stop-color="#FFD646" offset="29.59%"></stop>
            <stop stop-color="#DFAE3D" offset="62.24%"></stop>
            <stop stop-color="#C89525" offset="100%"></stop>
        </linearGradient>
    </defs>
    <g id="img-logo-slifer-company-98x92" stroke="none" stroke-width="1" fill="none" fill-rule="evenodd">
        <g id="Logo" fill-rule="nonzero">
            <g id="Group" transform="translate(0.000000, 61.243622)">
                <polygon id="Shape" fill="url(#linearGradient-1)" points="97.3387144 0.141331436 0.142308062 0.141331436 0.142308062 29.0671654 97.3387144 29.0671654 97.3387144 29.0671654"></polygon>
                <g transform="translate(11.384645, 7.537677)" fill="#4F5151" id="Shape">
                    <path d="M0,0.753767661 L2.7512892,0.753767661 C4.83847411,0.753767661 7.02053106,1.03643053 7.02053106,3.67461735 C7.02053106,5.22926315 6.02437463,6.2185832 4.3641139,6.50124608 L7.40001923,11.4007359 L5.83463054,11.4007359 L2.94103328,6.64257751 L1.32820858,6.64257751 L1.32820858,11.4007359 L0,11.4007359 L0,0.753767661 Z M1.23333654,5.46481554 L2.37180103,5.46481554 C3.79488165,5.46481554 5.59745044,5.46481554 5.59745044,3.72172783 C5.59745044,2.16708203 4.26924186,1.97864011 2.9884693,1.97864011 L1.18590052,1.97864011 L1.18590052,5.46481554 L1.23333654,5.46481554 Z"></path>
                    <path d="M15.2743987,10.034532 C14.4205503,11.1651835 13.3295218,11.5891778 11.9538772,11.5891778 C9.6295122,11.5891778 8.15899556,9.84609007 8.15899556,7.67900805 C8.15899556,5.37059458 9.77182026,3.7688383 12.0013132,3.7688383 C14.0884981,3.7688383 15.5115788,5.18215267 15.5115788,7.63189757 L15.5115788,8.0087814 L9.48720413,8.0087814 C9.58207618,9.28076432 10.5782326,10.3643053 11.9064412,10.3643053 C12.9500336,10.3643053 13.70901,9.98742151 14.2782422,9.23365385 L15.2743987,10.034532 Z M14.1833702,7.01946134 C14.1359342,5.74747841 13.3295218,4.94660027 11.9538772,4.94660027 C10.5782326,4.94660027 9.67694822,5.79458889 9.53464016,7.01946134 L14.1833702,7.01946134 Z"></path>
                    <path d="M17.1244035,4.94660027 C17.8833798,4.19283261 19.0218443,3.81594878 20.0654367,3.81594878 C22.2474937,3.81594878 23.1962141,4.85237932 23.1962141,6.92524038 L23.1962141,10.0816425 C23.1962141,10.5056368 23.2436501,10.9767416 23.2910862,11.3536254 L22.1051856,11.3536254 C22.0103136,11.023852 22.0103136,10.5527473 22.0103136,10.2700844 L21.9628776,10.2700844 C21.4885174,11.023852 20.634669,11.5891778 19.4962045,11.5891778 C17.9782518,11.5891778 16.7449153,10.8354101 16.7449153,9.37498528 C16.7449153,6.92524038 19.5910765,6.78390895 21.4410813,6.78390895 L21.9154416,6.78390895 L21.9154416,6.59546703 C21.9154416,5.51192602 21.2513373,4.94660027 20.0654367,4.94660027 C19.2590244,4.94660027 18.452612,5.22926315 17.8359438,5.74747841 L17.1244035,4.94660027 Z M20.729541,7.82033948 C19.1641524,7.82033948 18.1205599,8.24433379 18.1205599,9.23365385 C18.1205599,10.1758634 18.8321002,10.5056368 19.7808206,10.5056368 C21.2039012,10.5056368 21.9628776,9.46920624 21.9628776,8.29144427 L21.9628776,7.82033948 L20.729541,7.82033948 Z"></path>
                    <polygon points="25.4257071 0.0471104788 26.6116076 0.0471104788 26.6116076 11.4007359 25.4257071 11.4007359"></polygon>
                    <polygon points="33.5847026 0.753767661 40.3206176 0.753767661 40.3206176 1.93152963 34.8654752 1.93152963 34.8654752 5.27637363 39.9885654 5.27637363 39.9885654 6.4541356 34.8654752 6.4541356 34.8654752 10.2229739 40.6052337 10.2229739 40.6052337 11.4007359 33.5847026 11.4007359 33.5847026 0.753767661"></polygon>
                    <path d="M42.6924186,9.46920624 C43.1667788,10.0816425 43.7360111,10.4585263 44.5898594,10.4585263 C45.3488358,10.4585263 46.2501202,10.1287529 46.2501202,9.3278748 C46.2501202,8.52699666 45.4437078,8.33855475 44.6372955,8.15011283 C43.2142148,7.82033948 42.0283143,7.53767661 42.0283143,5.98303081 C42.0283143,4.52260597 43.4513949,3.81594878 44.8270395,3.81594878 C45.870632,3.81594878 46.8667884,4.19283261 47.3411486,5.18215267 L46.2975562,5.84169937 C45.965504,5.32348411 45.4437078,4.94660027 44.7321675,4.94660027 C44.0680632,4.94660027 43.2616509,5.27637363 43.2616509,5.98303081 C43.2616509,6.59546703 44.1629352,6.87812991 45.1590917,7.06657182 C46.4873003,7.30212422 47.5783287,7.773229 47.5783287,9.28076432 C47.5783287,10.9767416 46.0603761,11.5891778 44.5898594,11.5891778 C43.3090869,11.5891778 42.4078025,11.2594044 41.6962622,10.2229739 L42.6924186,9.46920624 Z"></path>
                    <path d="M53.3655233,5.04082123 L51.1834663,5.04082123 L51.1834663,8.76254906 C51.1834663,9.70475863 51.1834663,10.4585263 52.2744948,10.4585263 C52.6539829,10.4585263 53.0334711,10.3643053 53.3655233,10.2229739 L53.4129593,11.3536254 C52.9860351,11.5420673 52.4168028,11.6362883 51.9424426,11.6362883 C50.1873099,11.6362883 49.9026937,10.6940787 49.9026937,9.13943289 L49.9026937,5.08793171 L48.289869,5.08793171 L48.289869,4.05150118 L49.9026937,4.05150118 L49.9026937,1.88441915 L51.1360303,1.88441915 L51.1360303,4.0043907 L53.3180872,4.0043907 L53.3180872,5.04082123 L53.3655233,5.04082123 Z"></path>
                    <path d="M54.8360399,4.94660027 C55.5950162,4.19283261 56.7334807,3.81594878 57.7770732,3.81594878 C59.9591301,3.81594878 60.9078505,4.85237932 60.9078505,6.92524038 L60.9078505,10.0816425 C60.9078505,10.5056368 60.9552866,10.9767416 61.0027226,11.3536254 L59.8168221,11.3536254 C59.72195,11.023852 59.72195,10.5527473 59.72195,10.2700844 L59.674514,10.2700844 C59.2001538,11.023852 58.3463054,11.5891778 57.2078409,11.5891778 C55.6898883,11.5891778 54.4565517,10.8354101 54.4565517,9.37498528 C54.4565517,6.92524038 57.302713,6.78390895 59.1527178,6.78390895 L59.627078,6.78390895 L59.627078,6.59546703 C59.627078,5.51192602 58.9629737,4.94660027 57.7770732,4.94660027 C56.9706608,4.94660027 56.1642485,5.22926315 55.5475802,5.74747841 L54.8360399,4.94660027 Z M58.4411775,7.82033948 C56.8757888,7.82033948 55.8321963,8.24433379 55.8321963,9.23365385 C55.8321963,10.1758634 56.5437366,10.5056368 57.4924571,10.5056368 C58.9155377,10.5056368 59.674514,9.46920624 59.674514,8.29144427 L59.674514,7.82033948 L58.4411775,7.82033948 Z"></path>
                    <path d="M67.1219693,5.04082123 L64.9399123,5.04082123 L64.9399123,8.76254906 C64.9399123,9.70475863 64.9399123,10.4585263 66.0309408,10.4585263 C66.4104289,10.4585263 66.7899171,10.3643053 67.1219693,10.2229739 L67.1694053,11.3536254 C66.7424811,11.5420673 66.1732488,11.6362883 65.6988886,11.6362883 C63.9437559,11.6362883 63.6591397,10.6940787 63.6591397,9.13943289 L63.6591397,5.08793171 L62.046315,5.08793171 L62.046315,4.05150118 L63.6591397,4.05150118 L63.6591397,1.88441915 L64.8924763,1.88441915 L64.8924763,4.0043907 L67.0745332,4.0043907 L67.0745332,5.04082123 L67.1219693,5.04082123 Z"></path>
                    <path d="M74.9963487,10.034532 C74.1425003,11.1651835 73.0514718,11.5891778 71.6758272,11.5891778 C69.3514622,11.5891778 67.8809456,9.84609007 67.8809456,7.67900805 C67.8809456,5.37059458 69.4937703,3.7688383 71.7232633,3.7688383 C73.8104482,3.7688383 75.2335288,5.18215267 75.2335288,7.63189757 L75.2335288,8.0087814 L69.2565902,8.0087814 C69.3514622,9.28076432 70.3476187,10.3643053 71.6758272,10.3643053 C72.7194197,10.3643053 73.478396,9.98742151 74.0476283,9.23365385 L74.9963487,10.034532 Z M73.9527562,7.01946134 C73.9053202,5.74747841 73.0989079,4.94660027 71.7232633,4.94660027 C70.3476187,4.94660027 69.4463343,5.79458889 69.3040262,7.01946134 L73.9527562,7.01946134 Z"></path>
                </g>
            </g>
            <g id="Group" transform="translate(0.000000, 31.092916)">
                <rect id="Rectangle-path" fill="url(#linearGradient-2)" x="0.142308062" y="0.141331436" width="97.1964064" height="28.5018397"></rect>
                <g transform="translate(9.012844, 8.479886)" fill="#4F5151" id="Shape">
                    <path d="M6.73591494,9.37498528 C5.88206656,10.4585263 4.93334615,11.0709625 3.51026553,11.0709625 C1.70769674,11.0709625 0.0948720413,9.94031103 0.0948720413,8.05589188 C0.0948720413,6.54835655 1.18590052,5.5590365 2.46667308,4.99371075 C1.75513276,4.28705357 1.18590052,3.53328591 1.18590052,2.54396586 C1.18590052,0.942209576 2.46667308,0.0942209576 3.93718972,0.0942209576 C5.40770636,0.0942209576 6.59360687,0.895099097 6.59360687,2.4497449 C6.59360687,3.7688383 5.40770636,4.61682692 4.31667788,5.13504219 L6.59360687,7.53767661 L8.01668749,5.13504219 L9.43976811,5.13504219 L7.40001923,8.43277571 L9.8666923,10.9296311 L8.11155954,10.9296311 L6.73591494,9.37498528 Z M3.27308543,5.74747841 C2.37180103,6.26569368 1.3756446,6.87812991 1.3756446,8.0087814 C1.3756446,9.13943289 2.32436501,9.98742151 3.46282951,9.98742151 C4.55385798,9.98742151 5.26539829,9.28076432 5.92950258,8.52699666 L3.27308543,5.74747841 Z M3.60513757,4.38127453 C4.41154992,3.95728022 5.40770636,3.48617543 5.40770636,2.40263442 C5.40770636,1.60175628 4.79103809,1.17776197 4.03206176,1.17776197 C3.17821339,1.17776197 2.46667308,1.74308772 2.46667308,2.59107633 C2.46667308,3.15640208 2.84616124,3.62750687 3.22564941,4.0043907 L3.60513757,4.38127453 Z"></path>
                    <polygon points="13.756446 0.282662873 20.3974889 0.282662873 20.3974889 1.46042484 15.0372186 1.46042484 15.0372186 4.99371075 20.0180007 4.99371075 20.0180007 6.17147272 15.0372186 6.17147272 15.0372186 10.9296311 13.756446 10.9296311"></polygon>
                    <path d="M21.5833894,5.27637363 C21.5833894,4.61682692 21.5359534,4.0043907 21.5359534,3.53328591 L22.7218539,3.53328591 C22.7218539,3.91016974 22.7692899,4.33416405 22.7692899,4.75815836 L22.8167259,4.75815836 C23.1487781,4.05150118 24.0974985,3.344844 25.283399,3.344844 C25.4257071,3.344844 25.6154512,3.344844 25.8051952,3.43906495 L25.7103232,4.71104788 C25.5205791,4.6639374 25.283399,4.61682692 25.0462189,4.61682692 C23.5282663,4.61682692 22.864162,5.65325746 22.864162,7.34923469 L22.864162,10.9767416 L21.6308254,10.9767416 L21.6308254,5.27637363 L21.5833894,5.27637363 Z"></path>
                    <path d="M27.0385318,4.47549549 C27.7975081,3.72172783 28.9359726,3.344844 29.9795651,3.344844 C32.161622,3.344844 33.1103424,4.38127453 33.1103424,6.4541356 L33.1103424,9.61053768 C33.1103424,10.034532 33.1577785,10.5056368 33.2052145,10.8825206 L32.019314,10.8825206 C31.9244419,10.5527473 31.9244419,10.0816425 31.9244419,9.79897959 L31.8770059,9.79897959 C31.4026457,10.5527473 30.5487973,11.118073 29.4103328,11.118073 C27.8923802,11.118073 26.6590436,10.3643053 26.6590436,8.90388049 C26.6590436,6.4541356 29.5052049,6.31280416 31.3552097,6.31280416 L31.8295699,6.31280416 L31.8295699,6.07725177 C31.8295699,4.99371075 31.1654656,4.42838501 29.9795651,4.42838501 C29.1731527,4.42838501 28.3667404,4.71104788 27.7500721,5.22926315 L27.0385318,4.47549549 Z M30.6436694,7.34923469 C29.0782807,7.34923469 28.0346882,7.773229 28.0346882,8.76254906 C28.0346882,9.70475863 28.7462285,10.034532 29.6949489,10.034532 C31.1180296,10.034532 31.8770059,8.99810145 31.8770059,7.82033948 L31.8770059,7.34923469 L30.6436694,7.34923469 Z"></path>
                    <path d="M35.2923994,5.27637363 C35.2923994,4.61682692 35.2449634,4.0043907 35.2449634,3.53328591 L36.4308639,3.53328591 C36.4308639,3.91016974 36.4782999,4.33416405 36.4782999,4.75815836 L36.5257359,4.75815836 C36.8577881,4.05150118 37.8065085,3.344844 38.992409,3.344844 C40.6052337,3.344844 41.1270299,4.23994309 41.36421,4.75815836 C41.8860063,3.91016974 42.5975466,3.344844 43.7360111,3.344844 C45.870632,3.344844 46.5821723,4.52260597 46.5821723,6.4541356 L46.5821723,10.9296311 L45.3488358,10.9296311 L45.3488358,6.50124608 C45.3488358,5.46481554 44.9693476,4.47549549 43.546267,4.47549549 C42.5026745,4.47549549 41.6013901,5.32348411 41.6013901,6.64257751 L41.6013901,10.9296311 L40.3680536,10.9296311 L40.3680536,6.73679847 C40.3680536,5.08793171 39.9411294,4.47549549 38.944973,4.47549549 C37.3321483,4.47549549 36.620608,5.60614698 36.620608,7.30212422 L36.620608,10.9296311 L35.3872714,10.9296311 L35.3872714,5.27637363 L35.2923994,5.27637363 Z"></path>
                    <path d="M48.6219212,3.48617543 L49.8552577,3.48617543 L49.8552577,4.56971644 L49.9026937,4.56971644 C50.566798,3.7688383 51.5155185,3.29773352 52.5591109,3.29773352 C54.8834759,3.29773352 56.4963006,4.94660027 56.4963006,7.20790326 C56.4963006,9.42209576 54.8360399,11.118073 52.748855,11.118073 C51.4206464,11.118073 50.3296179,10.4585263 49.9026937,9.61053768 L49.8552577,9.61053768 L49.8552577,14.5100275 L48.6219212,14.5100275 L48.6219212,3.48617543 Z M52.5116749,9.94031103 C54.1244996,9.94031103 55.168092,8.76254906 55.168092,7.20790326 C55.168092,5.65325746 54.1244996,4.47549549 52.5116749,4.47549549 C50.8988502,4.47549549 49.8552577,5.65325746 49.8552577,7.20790326 C49.9026937,8.76254906 50.8988502,9.94031103 52.5116749,9.94031103 Z"></path>
                    <path d="M62.2834951,4.56971644 L60.1014382,4.56971644 L60.1014382,8.29144427 C60.1014382,9.23365385 60.1014382,9.98742151 61.1924667,9.98742151 C61.5719548,9.98742151 61.951443,9.89320055 62.2834951,9.75186911 L62.3309312,10.8825206 C61.904007,11.0709625 61.3347747,11.1651835 60.8604145,11.1651835 C59.1052818,11.1651835 58.8206656,10.2229739 58.8206656,8.6683281 L58.8206656,4.61682692 L57.2078409,4.61682692 L57.2078409,3.58039639 L58.8206656,3.58039639 L58.8206656,1.41331436 L60.0540022,1.41331436 L60.0540022,3.53328591 L62.2360591,3.53328591 L62.2360591,4.56971644 L62.2834951,4.56971644 Z"></path>
                    <path d="M67.1219693,3.29773352 C69.3988982,3.29773352 71.106595,4.8994898 71.106595,7.20790326 C71.106595,9.51631672 69.3988982,11.118073 67.1219693,11.118073 C64.8450403,11.118073 63.1373435,9.51631672 63.1373435,7.20790326 C63.1373435,4.8994898 64.7976042,3.29773352 67.1219693,3.29773352 Z M67.1219693,9.94031103 C68.734794,9.94031103 69.7783864,8.76254906 69.7783864,7.20790326 C69.7783864,5.65325746 68.734794,4.47549549 67.1219693,4.47549549 C65.5091446,4.47549549 64.4655521,5.65325746 64.4655521,7.20790326 C64.4655521,8.76254906 65.5091446,9.94031103 67.1219693,9.94031103 Z"></path>
                    <path d="M72.5296756,5.27637363 C72.5296756,4.61682692 72.4822396,4.0043907 72.4822396,3.53328591 L73.6681401,3.53328591 C73.6681401,3.91016974 73.7155761,4.33416405 73.7155761,4.75815836 L73.7630121,4.75815836 C74.0950643,4.05150118 75.0437847,3.344844 76.2296852,3.344844 C78.1745621,3.344844 79.0758465,4.56971644 79.0758465,6.35991464 L79.0758465,10.9296311 L77.7950739,10.9296311 L77.7950739,6.50124608 C77.7950739,5.27637363 77.2732777,4.47549549 76.0873772,4.47549549 C74.4745525,4.47549549 73.7630121,5.60614698 73.7630121,7.30212422 L73.7630121,10.9296311 L72.5296756,10.9296311 L72.5296756,5.27637363 Z"></path>
                </g>
            </g>
            <g id="Group">
                <rect id="Rectangle-path" fill="url(#linearGradient-3)" x="0.142308062" y="0.282662873" width="97.1964064" height="29.2556073"></rect>
                <g transform="translate(9.961564, 8.479886)" fill="#4F5151" id="Shape">
                    <path d="M6.21411871,2.92084969 C5.78719452,2.26130298 5.02821819,1.93152963 4.26924186,1.93152963 C3.13077736,1.93152963 1.99231287,2.4497449 1.99231287,3.72172783 C1.99231287,4.71104788 2.5141091,5.13504219 4.26924186,5.65325746 C5.92950258,6.17147272 7.49489127,6.73679847 7.49489127,8.80965954 C7.49489127,10.9296311 5.64488646,11.9189511 3.74744563,11.9189511 C2.5141091,11.9189511 1.18590052,11.4949568 0.426924186,10.4585263 L1.51795266,9.5634272 C1.99231287,10.3643053 2.89359726,10.7411892 3.79488165,10.7411892 C4.88591013,10.7411892 6.11924667,10.1287529 6.11924667,8.90388049 C6.11924667,7.58478709 5.21796227,7.34923469 3.32052145,6.73679847 C1.80256879,6.2185832 0.664104289,5.5590365 0.664104289,3.81594878 C0.664104289,1.79019819 2.41923705,0.753767661 4.31667788,0.753767661 C5.5025784,0.753767661 6.54617085,1.08354101 7.30514718,1.97864011 L6.21411871,2.92084969 Z"></path>
                    <polygon points="9.29746005 0.282662873 10.4833606 0.282662873 10.4833606 11.6362883 9.29746005 11.6362883"></polygon>
                    <path d="M13.3295218,0.471104788 C13.851318,0.471104788 14.2308062,0.895099097 14.2308062,1.36620389 C14.2308062,1.88441915 13.851318,2.26130298 13.3295218,2.26130298 C12.8077256,2.26130298 12.4282374,1.88441915 12.4282374,1.36620389 C12.4282374,0.895099097 12.8077256,0.471104788 13.3295218,0.471104788 Z M12.7128535,4.28705357 L13.9461901,4.28705357 L13.9461901,11.6833987 L12.7128535,11.6833987 L12.7128535,4.28705357 Z"></path>
                    <path d="M16.8397873,5.60614698 L15.2743987,5.60614698 L15.2743987,4.61682692 L16.8397873,4.61682692 L16.8397873,3.01507064 C16.8397873,1.31909341 17.4564556,0.0942209576 19.3538964,0.0942209576 C19.6385126,0.0942209576 20.0180007,0.141331436 20.2551808,0.282662873 L20.0654367,1.31909341 C19.8282566,1.22487245 19.5436405,1.17776197 19.2590244,1.17776197 C18.0256879,1.17776197 17.9782518,2.07286107 17.9782518,3.29773352 L17.9782518,4.61682692 L19.6859486,4.61682692 L19.6859486,5.60614698 L18.0256879,5.60614698 L18.0256879,11.6362883 L16.8397873,11.6362883 L16.8397873,5.60614698 Z"></path>
                    <path d="M27.607764,10.3171949 C26.7539157,11.4478464 25.6628872,11.8718407 24.2872426,11.8718407 C21.9628776,11.8718407 20.4923609,10.1287529 20.4923609,7.96167092 C20.4923609,5.65325746 22.1051856,4.05150118 24.3346786,4.05150118 C26.4218635,4.05150118 27.8449441,5.46481554 27.8449441,7.91456044 L27.8449441,8.29144427 L21.8205695,8.29144427 C21.9154416,9.5634272 22.911598,10.6469682 24.2398066,10.6469682 C25.283399,10.6469682 26.0423754,10.2700844 26.6116076,9.51631672 L27.607764,10.3171949 Z M26.5641716,7.30212422 C26.5167356,6.03014129 25.7103232,5.22926315 24.3346786,5.22926315 C22.959034,5.22926315 22.0577496,6.07725177 21.9154416,7.30212422 L26.5641716,7.30212422 Z"></path>
                    <path d="M29.6949489,6.03014129 C29.6949489,5.37059458 29.6475129,4.75815836 29.6475129,4.28705357 L30.8334134,4.28705357 C30.8334134,4.6639374 30.8808495,5.08793171 30.8808495,5.51192602 L30.9282855,5.51192602 C31.2603376,4.80526884 32.209058,4.09861166 33.3949586,4.09861166 C33.5372666,4.09861166 33.7270107,4.09861166 33.9167548,4.19283261 L33.8218827,5.46481554 C33.6321387,5.41770506 33.3949586,5.37059458 33.1577785,5.37059458 C31.6398258,5.37059458 30.9757215,6.40702512 30.9757215,8.10300235 L30.9757215,11.7305092 L29.742385,11.7305092 L29.742385,6.03014129 L29.6949489,6.03014129 Z"></path>
                    <path d="M44.9219116,2.92084969 C44.4949874,2.26130298 43.7360111,1.93152963 42.9770347,1.93152963 C41.8385702,1.93152963 40.7001057,2.4497449 40.7001057,3.72172783 C40.7001057,4.71104788 41.221902,5.13504219 42.9770347,5.65325746 C44.6372955,6.17147272 46.2026841,6.73679847 46.2026841,8.80965954 C46.2026841,10.9296311 44.3526793,11.9189511 42.4552385,11.9189511 C41.221902,11.9189511 39.8936934,11.4949568 39.1347171,10.4585263 L40.2257455,9.5634272 C40.7001057,10.3643053 41.6013901,10.7411892 42.5026745,10.7411892 C43.593703,10.7411892 44.8270395,10.1287529 44.8270395,8.90388049 C44.8270395,7.58478709 43.9257551,7.34923469 42.0283143,6.73679847 C40.5103617,6.2185832 39.3718972,5.5590365 39.3718972,3.81594878 C39.3718972,1.79019819 41.1270299,0.753767661 43.0244708,0.753767661 C44.2103713,0.753767661 45.2539637,1.08354101 46.0129401,1.97864011 L44.9219116,2.92084969 Z"></path>
                    <path d="M47.9103809,6.03014129 C47.9103809,5.37059458 47.8629449,4.75815836 47.8629449,4.28705357 L49.0488454,4.28705357 C49.0488454,4.6639374 49.0962814,5.08793171 49.0962814,5.51192602 L49.1437174,5.51192602 C49.4757696,4.80526884 50.42449,4.09861166 51.6103905,4.09861166 C53.2232152,4.09861166 53.7450114,4.99371075 53.9821915,5.51192602 C54.5039878,4.6639374 55.2155281,4.09861166 56.3539926,4.09861166 C58.4886135,4.09861166 59.2001538,5.27637363 59.2001538,7.20790326 L59.2001538,11.6833987 L57.8719452,11.6833987 L57.8719452,7.25501374 C57.8719452,6.2185832 57.4924571,5.22926315 56.0693764,5.22926315 C55.025784,5.22926315 54.1244996,6.07725177 54.1244996,7.39634517 L54.1244996,11.6833987 L52.8911631,11.6833987 L52.8911631,7.49056613 C52.8911631,5.84169937 52.4642389,5.22926315 51.4680824,5.22926315 C49.8552577,5.22926315 49.1437174,6.35991464 49.1437174,8.05589188 L49.1437174,11.6833987 L47.9103809,11.6833987 L47.9103809,6.03014129 Z"></path>
                    <path d="M61.998879,0.471104788 C62.5206752,0.471104788 62.9001634,0.895099097 62.9001634,1.36620389 C62.9001634,1.88441915 62.5206752,2.26130298 61.998879,2.26130298 C61.4770828,2.26130298 61.0975946,1.88441915 61.0975946,1.36620389 C61.0975946,0.895099097 61.5245188,0.471104788 61.998879,0.471104788 Z M61.3822108,4.28705357 L62.6155473,4.28705357 L62.6155473,11.6833987 L61.3822108,11.6833987 L61.3822108,4.28705357 Z"></path>
                    <path d="M69.0668461,5.32348411 L66.8847892,5.32348411 L66.8847892,9.04521193 C66.8847892,9.98742151 66.8847892,10.7411892 67.9758176,10.7411892 C68.3553058,10.7411892 68.734794,10.6469682 69.0668461,10.5056368 L69.1142821,11.6362883 C68.6873579,11.8247302 68.1181257,11.9189511 67.6437655,11.9189511 C65.8886327,11.9189511 65.6040166,10.9767416 65.6040166,9.42209576 L65.6040166,5.37059458 L63.9911919,5.37059458 L63.9911919,4.33416405 L65.6040166,4.33416405 L65.6040166,2.2141925 L66.8373531,2.2141925 L66.8373531,4.33416405 L69.0194101,4.33416405 L69.0194101,5.32348411 L69.0668461,5.32348411 Z"></path>
                    <path d="M70.4424907,0.282662873 L71.6283912,0.282662873 L71.6283912,5.60614698 L71.6758272,5.60614698 C72.0078794,5.04082123 72.8617278,4.42838501 73.9527562,4.42838501 C75.802761,4.42838501 76.6566094,5.60614698 76.6566094,7.30212422 L76.6566094,11.6362883 L75.4707089,11.6362883 L75.4707089,7.39634517 C75.4707089,6.2185832 74.9489127,5.46481554 73.8578842,5.46481554 C72.3399315,5.46481554 71.6758272,6.54835655 71.6758272,8.15011283 L71.6758272,11.5891778 L70.4899267,11.5891778 L70.4899267,0.282662873 L70.4424907,0.282662873 Z"></path>
                </g>
            </g>
        </g>
    </g>
</svg>