<svg xmlns="http://www.w3.org/2000/svg" width="190" height="100" viewBox="0 0 190 100"><title>logo-Watson-sans</title><path d="M189.89,74.29c0,3.49-2.46,6.78-7.32,9.78-4.4,2.72-10.66,5.15-18.61,7.22-16.2,4.23-37.73,6.56-60.61,6.56-23.79,0-45.93-2.5-62.32-7h0l-7.58-2.1h0c-9.53-2-17.48-4.47-23.11-7.3C3.55,78,.11,74.15.11,70c0-5,4.88-9.45,14.52-13.35l0,0c-3-7.95-5.61-15.06-6.06-16.21-.25-.64-.48-1.22-.67-1.74A14.06,14.06,0,0,0,6,34.75a8.26,8.26,0,0,0-3.4-1.85l-2-.58L1.63,30.5l2.11-3.65L4.21,26H26.75v0a8.38,8.38,0,0,1,1.87-4.46,4,4,0,0,1,.77-1.43,2.38,2.38,0,0,0,.29-.44v-.11a4.23,4.23,0,0,1,.69-2.14c.09-.17.19-.33.25-.48a10.84,10.84,0,0,1,.46-1.6,5,5,0,0,0,.4-1.74v-.15l0-.15a11.44,11.44,0,0,0,.31-4.19,5.2,5.2,0,0,1,.11-2.52c0-.15.07-.29.1-.44l.08-.42.3-.3.72-.72L34.46,3.4l.86,1.68a3.33,3.33,0,0,0,1,1.22l.14-.12A9,9,0,0,1,38.08,5l.51-.26.54.18.24.08c1.56.53,3.17,1.07,4.79,1.48l8.77,2.11c.58.14,1.14.26,1.75.38s1.25.25,1.89.42,1.19.21,1.75.33S59.46,10,60,10h.07a142.67,142.67,0,0,0,23.55,2.09l.47,0h.08l7.28,0c.77,0,1.58,0,2.19,0h1.85c.74,0,1.6,0,2.41-.07l.25,0,.24.07c.55.16,1.11.29,1.71.43a21.47,21.47,0,0,1,2.78.77,3.55,3.55,0,0,1,.59.13l.2.05h.12a5.18,5.18,0,0,0,1.12.12,5.28,5.28,0,0,0,1.14-.12l.12,0h.12l3-.12h.17l.17,0,.77.17,1.54.33-.53,1.48a3.82,3.82,0,0,1-1.82,2,4.32,4.32,0,0,0-.52.35l-.19.17-.24.09-.12.05.68-.16.28,1.39,0,.16,1,.15h.08l.08,0a5.88,5.88,0,0,0,1.19.13,5.72,5.72,0,0,1,2.75.63l.48-1,1.4,1.53,1.26,1.38c.33-.4.69-.76,1-1.11l.25-.26,0,0,0,0L121,18.93l.64-.58.8.33a7.09,7.09,0,0,0,1.08.31,7.83,7.83,0,0,1,1.72.55l.41.2.21.41.27.51a8.59,8.59,0,0,1,1,2.6,4.14,4.14,0,0,1,2.07,2.33,3.62,3.62,0,0,0,.42.76l.1.11.07.13.37.66.31.55-.22.59-.39,1c-.25.66-.49,1.29-.7,1.93l.05,0a3.12,3.12,0,0,1,1.17-.64,23.31,23.31,0,0,1,2.23-1.87c.39-.3.78-.6,1.16-.91l.27-.28c.12-.12.29-.29.41-.45l0-.07-.21-.43.09-.41h0l0-.27.06-.27.19-.87,0-.23.12-.19a4.8,4.8,0,0,1,3.34-2,8.06,8.06,0,0,0,1-.28l.47-.17.38-.14-.26-.24.22-.81.18-.65,0-.14.07-.13.51-1c.43-.81.86-1.65,1.27-2.48a2.38,2.38,0,0,1,1.41-1.19l.18-.08.13-.08.13,0c1.53-.58,3.16-1.18,4.85-1.73a3.61,3.61,0,0,0,2.05-2.49l0-.08,0-.08a4.81,4.81,0,0,1,.25-.54l0,0,0,0V9.66c0-.36,0-.75-.07-1.16a12.75,12.75,0,0,1-.06-1.82,3.69,3.69,0,0,1,0-1.13,2.81,2.81,0,0,0,0-.32v-.3l.12-.27a1.85,1.85,0,0,1,.78-.83h0l.6-.57.55.22.94-.94.4-.4h.57a2.86,2.86,0,0,1,1.75.69,2.2,2.2,0,0,0,.24.17l.45.17.23.41.22.37.05.08,0,.09c.41,1,.84,2,1.27,3l1.17-.25.17.93a5.68,5.68,0,0,1,1.31-.17,4.44,4.44,0,0,1,.68.05l1.29.21-.14,1.3a4.92,4.92,0,0,1-.44,1.51l-.11.25-.2.18a1.94,1.94,0,0,0-.18.44,3.5,3.5,0,0,1-.93,1.58l0,0,0,0a2.17,2.17,0,0,0-.56,1.06l-.08.26-.17.21a4,4,0,0,1-1.18.9,3.53,3.53,0,0,0-.34.21l-.08.29-.23.25a11,11,0,0,0-1.42,2l0,.1.11.3,0,.32a5.9,5.9,0,0,0,0,1.09,2.22,2.22,0,0,1,.64-.08h.68l.41.54c.38.5.84,1,1.35,1.62l.18.2.09.26a3.07,3.07,0,0,1-.48,3,1.88,1.88,0,0,1-1.54.73h-.26a2.45,2.45,0,0,1-1.39.49,2,2,0,0,1-.4,0l-.1,0v0a3.4,3.4,0,0,1-.6,1.58l0,.06-.06.06a13.93,13.93,0,0,1-3,2.28,14.85,14.85,0,0,1,0,2.33c0,.47,0,.92,0,1.34v0h5.65l.49.69c.08.11,7.8,10.9,8.83,12.22l.38.5c0-2.12.06-5.27,0-6.94a1.94,1.94,0,0,0-.13-.69l-.16-.1a3,3,0,0,1,.36-5.42,6.36,6.36,0,0,1,2.46-.39c.39,0,.77,0,1.1,0l.68,0c.23,0,.61,0,1-.08a15.93,15.93,0,0,1,1.74-.13,4.11,4.11,0,0,1,1.94.39,2.51,2.51,0,0,1,1.38,2.3,3.35,3.35,0,0,1-2.44,3.35l-.22.09a3.12,3.12,0,0,0-.24,1.58c0,1.23,0,13.78.07,19.13l.55.23C185.33,65.16,189.89,69.51,189.89,74.29Zm-32.52-18.5.23,0c.79.14,1.55.32,2.3.5-1-1.27-1.82-2.4-2.53-3.31ZM26.17,39.63c-.12-.2-.24-.39-.36-.6l-.1-.17.83,2.2.2-.42A10.19,10.19,0,0,0,26.17,39.63Zm-1.81-4.38,1.26,3.35V38.3c0-.41,0-.77.08-1.11a9.89,9.89,0,0,0,.07-1v-.39l.14-.23-.16-.37a7.39,7.39,0,0,1-.62-1.85h0c-.27.15-.52.29-.75.43h0c-.26.16-.5.31,0,1.46v.05Z" fill="#fff"/><path d="M84.9,42.26v.09L85,60.25c-.88-2.09-3-7.49-5.27-13.22l3.16-1.59.13-.09.47-.24.17-.53c.12-.25.22-.49.28-.6a9.1,9.1,0,0,1,.73-1.55,4.1,4.1,0,0,1,.26-.37.88.88,0,0,1,0,.12Zm26.27,14.31a7.71,7.71,0,0,0,.27,2.11A4.66,4.66,0,0,0,115,62.22a.86.86,0,0,0,.54-.19l.05,0,0,0a2,2,0,0,0,.36-1.35c0-1.77-1.79-2.8-4.79-4.1ZM114.31,42a3.19,3.19,0,0,0-1.35.24c-.17.09-.21.13-.21.35,0,.78,2.08,1.9,4,2.82C116.25,43,115,42,114.31,42ZM55.59,37.25l0-.07a6.22,6.22,0,0,0,.61-3A24.69,24.69,0,0,0,53.41,32l-1.26-.82.7-1.33,1.71-3.26.46-.88h19.4L73.33,28s0,0,0,.07l-1.83,3.81h0l-.73,1.54-1.3-.68-.06,0a2.28,2.28,0,0,0-.64.16c-.16.06-.34.14-.59.27h0a9.25,9.25,0,0,0-.7,1.11,20.27,20.27,0,0,0-1,2.47l5.82-3.6,1.68-1,.69,1.76,0,.06.95,2.45.72,1.85a7.88,7.88,0,0,1,.32.78V34.6h1.64l25.71-.12h1.29l.31,1.23v0l.47,1.89a17.72,17.72,0,0,1,10.64-3.81H117a.12.12,0,0,1-.06-.06c-.28-1.82-1.18-3.53-.67-5.43.15-1.12-.13-2.21.35-3.27a8.84,8.84,0,0,0,.16-2.07l-1.26-1.38c-.2.44-.24.93-.46,1.38-.8-.08-.24-1.13-.84-1.43-1.06-.86-2.61-.45-3.87-.8l-1.66-.26-.33-.41-.15-.73c-.33.08-.58-.12-.86-.28-.11-.29-.08-.62-.28-.87-.54,0-.86.34-1.3.42v-.13a8.74,8.74,0,0,1,2.47-2c.65-.57,1.62-.82,2-1.75l-.77-.17-3,.12a6.78,6.78,0,0,1-2.84,0,8.1,8.1,0,0,0-.92-.19c-1.48-.58-3.06-.78-4.56-1.23-2,.17-4.39,0-6.5.12l-7.32,0-.53,0a146.89,146.89,0,0,1-23.83-2.12c-1.22-.16-2.34-.49-3.54-.65s-2.48-.51-3.69-.81L43.83,7.82c-1.75-.44-3.45-1-5.13-1.59a18.55,18.55,0,0,0-2.15,1.62A3.65,3.65,0,0,1,34.1,5.7l-.72.72a5.24,5.24,0,0,0-.21,2.41,12.49,12.49,0,0,1-.31,4.76c0,1.37-.69,2.44-.9,3.73-.27.74-.9,1.39-.9,2.24.09,1.06-1.05,1.54-1.14,2.57a7.25,7.25,0,0,0-1.79,4,.55.55,0,0,1,0,.12,2.32,2.32,0,0,1,.37.7,1.53,1.53,0,0,1,.18.73,5.71,5.71,0,0,1-1.26,3.89h0a5.75,5.75,0,0,1-1,.91,6.84,6.84,0,0,0,.85,2.84.87.87,0,0,1-.16.83c0,.77-.13,1.41-.16,2.21a10.24,10.24,0,0,1,1.22,2.37l-.5,1.05,0,.12a5.89,5.89,0,0,1,1.31.59c.07.28-.2.43-.33.67s-.08.53.13.71a1.58,1.58,0,0,0,.24,1.78c.16.16.46.2.53.39-.53.13-.32.74-.53,1.11a1.51,1.51,0,0,0,.41,1.4L34.26,33l.15-.48.39-.32,7.9-6.47,1.92-1.58.7,2.38,5.57,19,1,3.31,3.71-11.44ZM13.1,72.69c0-2.57,1.66-5.06,4.75-7.37-.88-2.45-1.82-5-2.73-7.45C6.47,61.38,1.43,65.52,1.43,70c0,7.36,13.7,13.91,34.9,17.93C21.93,83.95,13.1,78.58,13.1,72.69ZM147.5,77.51c-.73-1.1-1.51-2.15-2.36-3.22l0-.77a5.56,5.56,0,0,0-1.75-2c-.54-.65-1-1.35-1.55-2h0a16.36,16.36,0,0,1-3.48.35c-4.8,0-9.93-.75-12.88-5.66-.08.11-.18.2-.26.3a15.35,15.35,0,0,1-12,5.36c-7.88,0-10.87-4.73-11-4.93l-.24-.39v-.45l-.1-7.65,0-1.7,1.7,0h.05l1.72,0,2.1,0c-3.1-1.49-6-3.58-6.3-7.5l-.21.13-2.16,1.38-.36-2.53c0-.12,0-.24-.06-.36a3.89,3.89,0,0,1-.1-.51c-.13-.5-.26-1-.41-1.56a6.65,6.65,0,0,0-.81-1.79h0v2.94c0,5.41,0,14.9.24,16.67a5.19,5.19,0,0,0,1.46.78l.47.24,1.29.48-.46,1.48-.77,2.52L99,68.42H69.2V66.74a3.07,3.07,0,0,1-1.41,1.41,5.42,5.42,0,0,1-1.77.41H56.84l-.15,0-.64-.1L56,68.7c-.16.5-.31,1-.48,1.44l.57.32.64.1,7.12.76a.78.78,0,0,0,.53,0c.17-.4.05-.93.25-1.34,1.28.21,2.48.45,3.79.54,1.5,1.62,3.18,3,4.59,4.67.44.76.7,1.67,1.05,2.47,1.33.69,2.64,1.46,3.94,2.23.28.12.64.58,1,.3.44-.85,1.13-1.68,1.65-2.53a29.58,29.58,0,0,1,3.06.25,18.2,18.2,0,0,1,3.07,4.46c1.33,1.71,1.77,3.8,2.74,5.67l3.63,1.82c1.18.13,2.27.48,3.42.7A6.52,6.52,0,0,0,97,88.66a28.85,28.85,0,0,0-.94-3.43l.54-1.45c.2-.87,1.05-1.3,1.58-2,.8-.57,1.63-1.13,2.35-1.71A11.81,11.81,0,0,0,103,78.32a3.64,3.64,0,0,1,2.51-1.58,6.32,6.32,0,0,1,3.46.57,9.34,9.34,0,0,0,2.06-.4c.34-.1.66-.29,1,0,0,.23-.25.36-.17.53a15,15,0,0,0,2.86.48c.4-.07.72-.94,1.12-.4.18.07.37.23.53,0,.22-.53.77-.64,1.23-.76a2.51,2.51,0,0,1,.64.57,1.25,1.25,0,0,0,1.34.09c.2-.22.46-.42.5-.7a2,2,0,0,0-.82-1.42c-.16-.22-.45-.18-.53-.43.82-.44-.24-.87-.21-1.42a4.81,4.81,0,0,1,3.94-.57,6.1,6.1,0,0,0,2.32-.89c1.42-.48,2.85.13,4.08.7a1.44,1.44,0,0,0,.27.69,3.59,3.59,0,0,0,3.18-.94c.32-.2.57-.53.89-.74.56-.28,1.06.29,1.46.62A4.52,4.52,0,0,0,137,73.71a1.8,1.8,0,0,1,.61,1.28,4.79,4.79,0,0,0-.06,2.76c0,.4.48.45.72.7.08.94.89,1.58,1.42,2.33.62.13.75.76,1.19,1.1.66.57,1.33.89,2,1.42a1.23,1.23,0,0,1,.92.44c.16.29-.11.47,0,.75A2.48,2.48,0,0,0,145.56,86c.76-.66,1.41-1.46,2.42-1.48.22-.19.09-.47.25-.68a13.34,13.34,0,0,1,.09-2.23C148.1,80.27,147.79,78.89,147.5,77.51Zm12-68.1-.09,0c0-.34-.26-.55-.31-.87l-.87.19q-.91-2-1.74-4l-.22-.37c-.52-.19-.89-.76-1.49-.76l-1.1,1.1c-.12.33-.4.41-.57.66-.29.08-.29-.33-.49-.41-.17.16-.37.19-.45.37a4.8,4.8,0,0,0,0,1.34c-.09,1,.12,2.06.12,3.08.29.5-.16,1-.32,1.44a5,5,0,0,1-3,3.49c-1.63.53-3.21,1.12-4.79,1.71-.37.24-.9.27-1.09.7-.58,1.18-1.2,2.35-1.8,3.5l-.18.65.26.24a1.33,1.33,0,0,1,0,.77c-.37.86-1.27,1-1.94,1.26-1.28.5-2.82.4-3.64,1.74l-.19.87a1.07,1.07,0,0,1,0,.49l.32.65c-.13.69-.78,1.21-1.26,1.74A37.15,37.15,0,0,0,131,32c-.73-.07-1.09.77-1.74.81a6.17,6.17,0,0,1-1.8-.57l.25-.93c.36-1.15.8-2.24,1.22-3.38l-.37-.66c-.77-.85-.82-2.34-2.16-2.8-.29,0-.5.36-.68.27.31-1.54-.53-2.75-1.14-4-.81-.4-1.83-.45-2.72-.82L120,21.63a6.88,6.88,0,0,0-2.19,3.17,4,4,0,0,0-.34,1.71,1.2,1.2,0,0,1,.34,1.22c-.28.28.07.56,0,.89a4.37,4.37,0,0,1,1.07,3.71,3.3,3.3,0,0,1-.83,1.53c5.65.34,7.21,2.68,7.48,3.18l.19.36v2.86c.15-.23.33-.43.49-.64s.3-.41.45-.6.43-.5.65-.74.57-.57.86-.83c.11-.1.2-.21.31-.3s.38-.28.58-.42l.41-.29c.23-.16.47-.31.7-.45l.51-.28a15.43,15.43,0,0,1,7-1.76c4.33,0,7.75,1.4,10.23,4.14l.07-1.91.06-1.58h3.51c0-1.14.17-2.38,0-3.62,0-.23-.19-.47-.24-.76a14.51,14.51,0,0,0,3.67-2.56,4,4,0,0,0,.44-1.54c.5-.12.43-.83,1-1,.13.27.47.34.68.44.43.09.77-.29,1.12-.47s.87.19,1.14-.21a1.7,1.7,0,0,0,.25-1.71c-.5-.55-1-1.13-1.43-1.71a.54.54,0,0,0-.37.09c-.2.33-.15.86-.57,1-1.1-.84-1.18-2.26-1-3.61-.09-.25-.28-.45-.22-.72A12.83,12.83,0,0,1,158,15.46c.24-.9,1.24-.95,1.79-1.6a3.3,3.3,0,0,1,1-1.71c.61-.56.5-1.45,1.1-2A3.63,3.63,0,0,0,162.18,9,8,8,0,0,0,159.54,9.41ZM137.2,61.7l.11.07a1.37,1.37,0,0,0,.34.12h0a2.18,2.18,0,0,0,.43,0c.65,0,1.85,0,1.85-2.59V45.44a6.54,6.54,0,0,0-.23-2l0-.1-.07-.16a1.56,1.56,0,0,0-1.38-.76l-.2,0a1.66,1.66,0,0,0-.37,0h0a1.11,1.11,0,0,0-.29.12h0a1.46,1.46,0,0,0-.5.56,5.6,5.6,0,0,0-.53,2.63V59.35a4,4,0,0,0,.43,1.83A1.47,1.47,0,0,0,137.2,61.7ZM120.88,47.4c.75.38,1.48.78,2.19,1.22,0-.41.09-.82.15-1.22ZM70.53,57.82H67.34l0,.07a14.12,14.12,0,0,0-.93,3.24,1,1,0,0,0,0,.4,3.09,3.09,0,0,0,.72.42,4,4,0,0,1,2.31,2.27,3.51,3.51,0,0,1,.13.59,4,4,0,0,1,2.07-2.32l.41-.22.12,0,.11-.05a6.38,6.38,0,0,0-.35-1.29l-.16-.49A26.68,26.68,0,0,0,70.53,57.82ZM62.3,49.45l.85-2.51.68-2,.07-.17a15.2,15.2,0,0,0,1.05-3.24c0-.14,0-.28,0-.42-.51,1.54-1.07,3.25-1.62,5.14C63,47.22,62.64,48.32,62.3,49.45Z" fill="#d71344"/><path d="M162,59c-1.41-.53-3-1.07-4.59-1.58v-.33c1.31.24,2.56.57,3.82.84C161.43,58.33,161.72,58.66,162,59ZM67.3,31.76a4.46,4.46,0,0,1,2.11-.66,1.34,1.34,0,0,1,.57.1l1.83-3.83H56L54.3,30.63A25.5,25.5,0,0,1,57.43,33c1.25,1.25-.3,4.8-.3,4.8L51.77,54.35,43.73,27l-7.9,6.47L29.6,53.92,22.82,35.83c-.4-1-.86-2.52.68-3.48s3.55-1.44,3.55-4.68H5.16L3.06,31.32s3,.84,4.23,2.4S9,37,10.13,39.82s15,40.52,15,40.52,3.76-2,4.62-3c0,0,1.62-4.24,3.54-9.45,1.71-4.67,3.66-10.73,4.39-10.73s3.25,7.9,4.63,11.13,4,10.3,4.39,10.59h.06c.69,0,5.15-3.4,5.15-3.4S57.43,59.43,60.38,50,65.48,32.75,67.3,31.76ZM177,37c0,1.71-1.31,1.64-2,2.08s-.94,1.34-.94,2.93.08,21.55.08,21.55l-3.92,4s-13.32-18.18-13.87-18.18-.66,1.14-.66,1.14V61c0,2.36,2.27,2.36,2.27,3.86a2.17,2.17,0,0,1-1.34,2h-8.37s-.66-2.17,2.47-3.5c.73-.29.73-1.22.73-2.17V42a9.48,9.48,0,0,0-.36-2.36,2.63,2.63,0,0,0-1.52-1.14l.08-2.26h8.09s7.81,10.91,8.87,12.26,2.36,3.17,2.81,3.17.48-1.49.48-1.49.17-6.49,0-9.24-1.78-1.5-1.78-3.38c0-1.25,1.34-1.46,2.66-1.46.65,0,1.3.05,1.78.05.69,0,1.79-.21,2.72-.21S177,36.15,177,37Zm-39.24-1.39c-4.22,0-13.18,2.23-13.18,16v.24c-4.19-4.07-13.46-5.62-13.46-9.19,0-1.86,1.87-2.23,3.21-2.23s3.58,1.38,4.17,5.37h5.63V37.82s-1.26-2.36-7.44-2.36a15.72,15.72,0,0,0-11.55,5.33L104,36.12l-25.71.12v9.68l3.86-2s1.23-3.76,2.94-3.76,1.5,2.15,1.5,2.15l.09,19.78c0,1.62-.71,1.82-.71,1.82h0c-.19,0-1.06-.13-2.07-2.24-1.13-2.4-10.74-27.12-10.74-27.12l-6.62,4.1s.13,1.42.13,2.81a12.93,12.93,0,0,1-1.26,4l-4,11.83a29.37,29.37,0,0,1-1.7,4.22c-1.54,2.85-3.11,3.26-3.25,4.23s.57,1.15.57,1.15h9s1.86,0,1.86-1.67c0-2.32-3.65-1.35-3.12-4.4.74-3.93,1.7-4.66,1.7-4.66h5.08a37,37,0,0,1,1.72,3.7c.4,1.25,1.05,2.64.12,3.49-.66.64-2.53.52-2.53,3.41H97.74l.77-2.52s-2.51-.94-2.83-2-.27-20.41-.27-20.41.15-1.62,1.49-1.62c2.37,0,3.19,5.87,3.19,5.87l3.16-2a8.15,8.15,0,0,0-.44,2.65c0,8.39,14.8,7.08,14.8,13.83,0,2.73-1.78,3.29-2.64,3.29-1.7,0-5.45-2.06-5.45-7.32l-5.94-.12.1,7.65s2.54,4.15,9.59,4.15c5.48,0,10.48-2.86,12.42-7.61,1.92,6.07,6.32,7.61,12.69,7.61,8.88,0,12.18-6,12.18-16.39S146.2,35.59,137.75,35.59ZM69.15,52.81h-.2c-.87,0-1.31-.13-1.31-.83s.81-2.68,1.31-2.68,1.2,1.13,1.2,2.36S69.84,52.81,69.15,52.81Zm72.46,6.54c0,1.88-.59,4.24-3.5,4.24s-3.46-2.82-3.46-4.24V45.73c0-2.49.85-5,3.38-5,3.66,0,3.58,3.46,3.58,4.8Zm34.24,3.22h0c0,.59,0,.95,0,1v.68l-.48.48-1.21,1.22a8.21,8.21,0,0,1,2.73,5.64c0,12.32-38.13,22.28-85.19,22.28a275.36,275.36,0,0,1-50.3-4.3c15.54,4.3,37.57,7,62,7,47.1,0,85.22-10,85.22-22.24C188.57,70,183.9,66,175.84,62.57Z" fill="#23346d"/></svg>