<svg xmlns="http://www.w3.org/2000/svg" width="40" height="40" viewBox="0 0 40 40"><title>enterprise-network</title><path fill="#233f44" d="M27.43,33.77c-1-.92-2-1.87-3-2.85A33,33,0,0,1,22,28.17a9.05,9.05,0,0,1-1.13-1.82,6.18,6.18,0,0,1-.29-5.1,32.25,32.25,0,0,0,3.5,5.66c.28,2.37,2,5.12,4.94,8.26ZM26.34,21.4a11.91,11.91,0,0,1,.73-5.76,18.2,18.2,0,0,0-2.33,1.2,13.28,13.28,0,0,0,.44,5.81,7.7,7.7,0,0,1,1.16-1.24m-1.47,1.69a14.64,14.64,0,0,1-.9-5.74,12.69,12.69,0,0,0-1.5,1.22,17.27,17.27,0,0,0,1.82,5.77,5.91,5.91,0,0,1,.58-1.25m-.38-8.52a16.47,16.47,0,0,1,3.08-5.39q-1.45.54-2.85,1.21a13.12,13.12,0,0,0-2.26,5.84,17.8,17.8,0,0,1,1.92-1.29m-2.76,2a11.83,11.83,0,0,1,1.55-5.75c-.75.4-1.49.84-2.22,1.32a10.59,10.59,0,0,0-.59,5.77,11.8,11.8,0,0,1,1.27-1.33m.24,2.27A7.85,7.85,0,0,0,21,20.47,25.68,25.68,0,0,0,24,26.19a5.55,5.55,0,0,1,.12-1.29,19.53,19.53,0,0,1-2.26-5.72m-2.11-.1a10.44,10.44,0,0,1-.11-5.71,12.51,12.51,0,0,0-4.43,5.09,6.93,6.93,0,0,0,.87,6.37,19.56,19.56,0,0,0,5.53,5.48c1.9,1.32,4.12,2.69,6,4.06A40.52,40.52,0,0,1,21,28.18a9.8,9.8,0,0,1-2.25-4.68,6.58,6.58,0,0,1,1-4.42M27.93,3.32c-.87.93-1.76,1.83-2.62,2.76a21.92,21.92,0,0,0-2.58,3.15c.92-.5,1.82-1,2.68-1.37,2-2.45,4-4.45,5-5.87-.29.14-1.91,1-2.47,1.32M10.12,22.42c1.77,2.88,4.69,5,7.53,6.73s5.89,3.13,8.68,4.77l-.79-.49a68.71,68.71,0,0,1-7.31-5c-2.11-1.79-4.29-3.86-5.15-6.57C11.36,16.41,17,12.6,21,10.21a30.89,30.89,0,0,1,4.89-5.86c-4.28,2.18-8.67,4.3-12.43,7.32a13.09,13.09,0,0,0-4,4.73,6.36,6.36,0,0,0,.62,6m16.5.68a5.57,5.57,0,0,0-1.55,4.61c.71,3.68,3.42,6.62,5.88,9.29a5.7,5.7,0,0,1-.38-2.73C29.55,30.44,27.43,27,26.62,23.1Z"/></svg>